<?xml version="1.0" standalone="no"?>
<!DOCTYPE svg PUBLIC "-//W3C//DTD SVG 1.1//EN" "http://www.w3.org/Graphics/SVG/1.1/DTD/svg11.dtd" >
<svg xmlns="http://www.w3.org/2000/svg">
<metadata></metadata>
<defs>
<font id="BaskervilleEF-MediumRegular" horiz-adv-x="1024" >
<font-face units-per-em="2048" ascent="1638" descent="-410" />
<missing-glyph horiz-adv-x="512" />
<glyph horiz-adv-x="0" />
<glyph horiz-adv-x="2048" />
<glyph unicode=" " horiz-adv-x="512" d="M0 0z" />
<glyph unicode="!" horiz-adv-x="630" d="M150 131q0 68 48 116t117 48q67 0 115.5 -48.5t48.5 -115.5q0 -69 -48 -117.5t-116 -48.5q-69 0 -117 48.5t-48 117.5zM197 1319q0 43 34 70.5t88 27.5q53 0 87 -27.5t34 -70.5q0 -15 -2 -31q-9 -130 -26.5 -367.5t-22.5 -299.5l-2 -19l-4 -22q-9 -62 -64 -62 q-37 0 -51.5 22t-19.5 81l-47 632l-2 35q-2 16 -2 31z" />
<glyph unicode="&#x22;" horiz-adv-x="755" d="M96 1366h228l-39 -549h-152zM432 1366h225l-36 -549h-152z" />
<glyph unicode="#" horiz-adv-x="1228" d="M41 399l29 185h219l33 225h-218l29 184h217l60 373h206l-57 -373h227l58 373h211l-60 -373h215l-28 -184h-215l-33 -225h215l-29 -185h-215l-63 -399h-211l63 399h-227l-61 -399h-209l63 399h-219zM496 584h227l35 225h-228z" />
<glyph unicode="$" horiz-adv-x="1058" d="M68 297q0 40 33.5 70t76.5 30q37 0 66.5 -21.5t44.5 -60.5l20 -49q20 -48 45.5 -79.5t59 -49.5t80.5 -26v485q-36 18 -85 40.5t-73 34t-57 32.5t-64 49q-111 102 -111 262q0 163 106 263.5t284 106.5v177h100v-177q90 -10 146 -31.5t112 -64.5q51 -41 80 -89.5t29 -94.5 q0 -47 -27.5 -77t-71.5 -30q-91 0 -100 99l-2 37q-5 47 -50.5 85.5t-115.5 53.5v-447q17 -10 18 -10q48 -24 88 -41q152 -69 222.5 -160t70.5 -217q0 -163 -109.5 -276.5t-289.5 -138.5v-193h-100v193q-50 4 -54 4q-41 6 -84 20.5t-82.5 35t-72.5 46.5q-57 45 -95 105.5 t-38 103.5zM297 1096q0 -67 43 -119q15 -20 32.5 -35t44 -30.5t77.5 -41.5v402q-91 -9 -144 -56.5t-53 -119.5zM594 111q93 12 153 72.5t60 140.5q0 43 -25.5 83.5t-73.5 76t-114 61.5v-434z" />
<glyph unicode="%" horiz-adv-x="1206" d="M68 1016q0 153 68 259.5t165 106.5t163 -103.5t66 -254.5t-67 -256.5t-164 -105.5q-95 0 -163 104t-68 250zM209 1030q0 -8 4 -102q5 -103 29 -158q20 -45 57 -45q90 0 90 301q0 139 -24.5 217t-67.5 78q-41 0 -64.5 -76.5t-23.5 -214.5zM233 0l637 1366h109l-637 -1366 h-109zM676 336q0 153 68 259.5t165 106.5t163.5 -103.5t66.5 -252.5q0 -151 -67.5 -256.5t-164.5 -105.5q-95 0 -163 103.5t-68 248.5zM817 352q0 -6 4 -104q5 -100 29 -158q22 -45 57 -45q90 0 90 303q0 140 -24 216.5t-68 76.5q-41 0 -64.5 -76t-23.5 -213z" />
<glyph unicode="&#x26;" horiz-adv-x="1470" d="M96 358q0 95 44 178t112 136q16 13 30.5 23t33 20t39 19.5t53.5 23.5l-15 24q-52 88 -73 149.5t-21 119.5q0 34 8 64.5t22.5 57t35.5 49.5t48 40.5t58.5 29.5t68.5 18.5t76 6.5q134 0 219 -65t85 -169q0 -190 -263 -303q21 -31 65 -95.5t67.5 -98.5t61 -87t73.5 -102 q49 77 67 119q21 58 21 98q0 57 -29 81.5t-100 29.5v96h450v-96q-43 -4 -60 -9.5t-40 -19.5q-25 -19 -44 -47t-52 -98q-34 -74 -60 -119q-41 -83 -80 -133q41 -48 95 -102q88 -88 163 -88q78 0 146 79l55 -77q-140 -152 -299 -152q-50 0 -94.5 13t-84 40t-67.5 52t-67 65 q-53 -53 -112 -89.5t-122 -55.5t-127 -19q-111 0 -199.5 50t-138 140t-49.5 203zM326 436q0 -79 37.5 -149.5t100.5 -112t134 -41.5q47 0 83.5 16t90.5 60q-65 83 -116.5 155.5t-91 134t-107.5 173.5q-71 -56 -101 -110t-30 -126zM504 1090q0 -40 22 -88.5t80 -139.5 q23 13 40.5 24.5t35 26.5t29.5 31t22 35.5t14.5 43t4.5 50.5q0 32 -9.5 58.5t-26 45.5t-41 29.5t-54.5 10.5q-53 0 -85 -35t-32 -92z" />
<glyph unicode="'" horiz-adv-x="419" d="M96 1366h228l-39 -549h-150z" />
<glyph unicode="(" horiz-adv-x="663" d="M123 514q0 275 92 541q39 106 68 163.5t90 147.5h209q-64 -94 -94.5 -153.5t-67.5 -163.5q-94 -256 -94 -537q0 -311 104 -567q33 -80 62.5 -134.5t89.5 -146.5h-209q-118 160 -184 383.5t-66 466.5z" />
<glyph unicode=")" horiz-adv-x="663" d="M82 -336q64 91 94.5 151t67.5 165q94 259 94 536q0 309 -105 567q-33 81 -61.5 135t-89.5 148h209q119 -162 184.5 -385t65.5 -467q0 -275 -92 -541q-39 -104 -68 -162t-90 -147h-209z" />
<glyph unicode="*" horiz-adv-x="1058" d="M80 1050.5q0 52.5 31 89t75 36.5q16 0 38.5 -7t46.5 -19.5t44 -27.5l45 -35q22 -17 63 -42.5t64 -34.5q-5 53 -34 145q-19 52 -19 53q-18 56 -18 101q0 50 31 79t83 29q51 0 82 -29.5t31 -78.5q0 -56 -18 -101l-19 -53q-32 -96 -35 -145q22 10 55 29t66.5 42.5t50.5 40.5 q13 9 28.5 17.5t34 17t36.5 14t32 5.5q43 0 74 -36.5t31 -88.5q0 -53 -46.5 -82t-129.5 -29h-70q-89 0 -135 -10q40 -45 115 -99q39 -26 46.5 -31.5t37.5 -31.5q31 -29 44 -53.5t13 -52.5q0 -43 -40.5 -78t-82.5 -35q-38 0 -74 39t-55 100l-16 53q-18 70 -56 140 q-31 -52 -57 -140l-16 -53q-48 -139 -129 -139q-44 0 -83.5 36.5t-39.5 76.5q0 32 26.5 70t69.5 69l45 30q76 54 117 99q-51 10 -135 10h-70q-85 0 -131.5 29t-46.5 81.5z" />
<glyph unicode="+" d="M68 594v190h342v332h204v-332h342v-190h-342v-332h-204v332h-342z" />
<glyph unicode="," horiz-adv-x="591" d="M96 174q0 73 52 125.5t124 52.5q95 0 159.5 -88t64.5 -217q0 -142 -75.5 -243.5t-213.5 -145.5l-31 70q73 40 115.5 102t42.5 129q0 18 -8 49q-18 -8 -47 -8q-77 0 -130 50.5t-53 123.5z" />
<glyph unicode="-" horiz-adv-x="460" d="M0 391v146h461v-146h-461z" />
<glyph unicode="." horiz-adv-x="591" d="M119 141q0 72 52.5 124t125.5 52t125.5 -52t52.5 -124q0 -73 -52 -124.5t-126 -51.5q-75 0 -126.5 51t-51.5 125z" />
<glyph unicode="/" horiz-adv-x="833" d="M-131 -336l782 1702h158l-784 -1702h-156z" />
<glyph unicode="0" horiz-adv-x="1058" d="M96 664q0 180 59.5 337.5t160 251t216.5 93.5q117 0 217 -91t158 -248t58 -341q0 -139 -34.5 -266t-92.5 -218t-138 -144.5t-168 -53.5q-116 0 -216.5 92.5t-160 250t-59.5 337.5zM352 664q0 -53 6 -148q7 -114 17.5 -176t30.5 -121q19 -57 52.5 -91t73.5 -34 q38 0 72.5 34t54.5 91q29 104 38.5 195.5t9.5 249.5q0 294 -48 444q-20 57 -54.5 91t-72.5 34q-34 0 -63 -25t-47.5 -66t-30.5 -84t-18 -87q-21 -189 -21 -307z" />
<glyph unicode="1" horiz-adv-x="1058" d="M217 0v82h14q70 3 97.5 10t50.5 27q25 22 34 54.5t9 98.5v838h-189v86q146 18 228.5 52t177.5 112h37v-1088q0 -64 6.5 -91.5t26.5 -49.5q43 -46 159 -49v-82h-651z" />
<glyph unicode="2" horiz-adv-x="1058" d="M76 0l20 109l27 28q190 185 247 249.5t126 172.5q157 246 157 453q0 112 -47 174.5t-131 62.5q-51 0 -93 -26.5t-65.5 -74t-23.5 -106.5q0 -67 40.5 -114t112.5 -64q-26 -38 -68 -60t-89 -22q-73 0 -123.5 64t-50.5 158q0 96 52 176.5t142.5 127t198.5 46.5 q173 0 286 -106t113 -269q0 -68 -25.5 -146t-62.5 -140.5t-80 -110.5q-30 -35 -110 -119.5t-107 -108.5l-188 -168h223l80 2q78 3 106 9t54 26q25 19 42.5 52t39.5 100h96l-84 -375h-815z" />
<glyph unicode="3" horiz-adv-x="1058" d="M66 248q0 85 55 134.5t147 49.5q49 0 49 -16q0 -2 -4 -10q-37 -82 -37 -146q0 -70 48 -114t125 -44q101 0 162 83.5t61 220.5q0 120 -38 196t-99 76q-12 0 -48 -8q-11 -5 -22.5 -10t-28.5 -13q-24 -12 -39 -12q-32 0 -56 25.5t-24 60.5q0 32 20.5 51t55.5 19q11 0 49 -9 q44 -12 66 -12q68 0 106.5 70.5t38.5 193.5q0 101 -46.5 163.5t-121.5 62.5q-57 0 -98 -35t-41 -86q0 -61 51 -115q9 -9 9 -12q0 -8 -11 -15q-39 -24 -90 -24q-65 0 -106 40t-41 103q0 106 100 178t246 72q167 0 281 -96t114 -236q0 -105 -60 -178.5t-184 -120.5 q123 -26 195 -118.5t72 -223.5q0 -116 -62.5 -210t-173 -146.5t-246.5 -52.5q-161 0 -267.5 75t-106.5 189z" />
<glyph unicode="4" horiz-adv-x="1058" d="M45 315l592 1028h104v-915q14 2 31 2q61 2 84 23q23 15 45 71h86l-67 -209h-179v-96q0 -84 28 -110t118 -29v-80h-527v80q73 3 109 39q18 18 24 36.5t9 65.5l2 49v45h-459zM213 428h291v524z" />
<glyph unicode="5" horiz-adv-x="1058" d="M59 246q0 52 31.5 86.5t77.5 34.5q102 0 102 -123v-15q-2 -18 -2 -34q0 -43 32.5 -70t82.5 -27q57 0 106 41q73 58 118.5 164t45.5 219q0 107 -39.5 166.5t-111.5 59.5q-43 0 -82 -25q-23 -13 -37 -29.5t-31 -50.5l-22 -43q-14 -33 -54 -33t-40 33v10l86 733 q130 -26 149 -26q79 -12 164 -12q98 0 148.5 16t90.5 59l66 -37q-10 -32 -21 -50t-40 -54q-67 -79 -140.5 -111t-187.5 -32q-75 0 -150 16l-41 -317q89 75 203 75q141 0 237.5 -106t96.5 -264q0 -142 -61.5 -261t-168.5 -187t-235 -68q-145 0 -259 80.5t-114 181.5z" />
<glyph unicode="6" horiz-adv-x="1058" d="M106 578q0 216 81.5 395.5t222.5 283t309 103.5q100 0 163.5 -37.5t63.5 -95.5q0 -40 -29.5 -68.5t-70.5 -28.5q-28 0 -48.5 12.5t-45.5 43.5q-48 65 -109 65q-112 0 -186 -139q-30 -56 -43 -100q-11 -38 -41 -191q38 38 97 60t124 22q163 0 275 -127.5t112 -312.5 q0 -202 -128 -340.5t-314 -138.5q-200 0 -316.5 159.5t-116.5 434.5zM356 444q0 -167 49 -257.5t140 -90.5q182 0 182 359q0 336 -176 336q-92 0 -143.5 -92t-51.5 -255z" />
<glyph unicode="7" horiz-adv-x="1058" d="M109 946l75 420h74q6 -23 45 -23h668q-37 -96 -108 -278t-127.5 -328.5t-106.5 -279.5l-82 -211q-2 -5 -9 -25.5t-9.5 -27.5t-9.5 -25.5t-10 -27t-9 -24t-10.5 -24.5t-9.5 -20t-9.5 -19.5t-9.5 -15.5q-36 -53 -99 -53q-51 0 -85.5 30t-34.5 74q0 26 8.5 55.5t18 49 t28 53.5t25.5 49q13 25 25 48t19 36.5t9 17.5l409 740h-354q-98 0 -145 -32t-76 -118l-12 -41h-88z" />
<glyph unicode="8" horiz-adv-x="1058" d="M102 352q0 117 73 203.5t200 118.5q-120 80 -172.5 158.5t-52.5 179.5q0 154 112.5 254t284.5 100q156 0 261 -95t105 -235q0 -115 -73 -207q-28 -32 -55.5 -52.5t-82.5 -49.5q139 -90 202 -178.5t63 -196.5q0 -157 -125.5 -262.5t-311.5 -105.5q-183 0 -305.5 105 t-122.5 263zM328 328q0 -100 62 -169t151 -69q85 0 141.5 60t56.5 149q0 66 -42.5 132t-114.5 112q-98 64 -113 75l-29 -36q-62 -77 -87 -134t-25 -120zM352 1081q0 -73 53.5 -140t167.5 -138l27 -17q53 75 59 84q22 38 36 87.5t14 89.5q0 97 -51.5 159t-131.5 62 q-48 0 -88 -25t-63 -68t-23 -94z" />
<glyph unicode="9" horiz-adv-x="1058" d="M98 903q0 198 117 324.5t303 126.5q206 0 321 -154t115 -430q0 -224 -69 -404t-191 -281t-274 -101q-125 0 -216 58.5t-91 139.5q0 41 28 71t66 30q78 0 106 -97q11 -48 36 -72t75 -24q98 0 171.5 121.5t104.5 333.5q-97 -84 -227 -84q-160 0 -267.5 127t-107.5 315z M342 915q0 -160 46 -252t128 -92q95 0 144 84.5t49 247.5v27q-4 158 -51 238.5t-132 80.5q-87 0 -135.5 -88.5t-48.5 -245.5z" />
<glyph unicode=":" horiz-adv-x="591" d="M119 141q0 72 52.5 124t125.5 52t125.5 -52t52.5 -124q0 -73 -52 -124.5t-126 -51.5q-75 0 -126.5 51t-51.5 125zM119 721q0 73 52.5 125.5t125.5 52.5t125.5 -52.5t52.5 -125.5q0 -72 -52 -123t-126 -51q-75 0 -126.5 51t-51.5 123z" />
<glyph unicode=";" horiz-adv-x="591" d="M96 174q0 73 52 125.5t124 52.5q95 0 159.5 -88t64.5 -217q0 -141 -75.5 -243t-213.5 -146l-31 70q72 38 115 101t43 130q0 18 -8 49q-18 -8 -47 -8q-77 0 -130 50.5t-53 123.5zM117 750q0 74 52.5 126t125.5 52t125.5 -52t52.5 -126t-51.5 -124.5t-126.5 -50.5 q-74 0 -126 51t-52 124z" />
<glyph unicode="&#x3c;" d="M68 594v174l888 432v-203l-671 -317l669 -318l2 -202z" />
<glyph unicode="=" d="M68 442v179h888v-179h-888zM68 774v180h888v-180h-888z" />
<glyph unicode="&#x3e;" d="M68 160v202l671 318l-669 317l-2 203l888 -434v-174z" />
<glyph unicode="?" horiz-adv-x="970" d="M186 1237q0 78 85.5 129t217.5 51q169 0 263 -96.5t94 -271.5q0 -151 -71.5 -244.5t-188.5 -93.5q-36 0 -60.5 6t-66.5 26v-223h-109v357h90q9 -23 28.5 -36.5t43.5 -13.5q109 0 109 242q0 231 -146 231q-43 0 -67.5 -17.5t-36.5 -57.5q-24 -78 -86 -78q-40 0 -69.5 26.5 t-29.5 63.5zM236 131q0 68 48 116t115 48q69 0 117.5 -48t48.5 -116q0 -69 -48.5 -117.5t-117.5 -48.5q-68 0 -115.5 48.5t-47.5 117.5z" />
<glyph unicode="@" horiz-adv-x="1501" d="M68 674q0 147 55.5 279t150.5 227t227.5 150.5t280.5 55.5q183 0 331.5 -78.5t232.5 -216.5t84 -309q0 -124 -47 -234.5t-125.5 -176.5t-165.5 -66q-59 0 -101 34t-51 91q-42 -65 -109.5 -101t-146.5 -36q-123 0 -205 92t-82 233q0 167 106.5 289.5t252.5 122.5 q152 0 213 -129l20 105h144l-80 -410q-15 -67 -15 -90q0 -38 17.5 -60t46.5 -22q57 0 110 72q88 117 88 286q0 209 -143 341t-369 132q-162 0 -295 -76.5t-209.5 -210t-76.5 -296.5q0 -116 42 -222.5t118 -185.5q156 -160 426 -160q214 0 405 78l35 -129q-191 -78 -440 -78 q-209 0 -374.5 89t-258 248.5t-92.5 361.5zM559 623q0 -83 45 -134t117 -51q86 0 145.5 78.5t59.5 192.5q0 78 -42 125t-110 47q-88 0 -151.5 -76t-63.5 -182z" />
<glyph unicode="A" horiz-adv-x="1531" d="M20 0v102h17q82 0 124.5 31.5t76.5 114.5l456 1138h131l465 -1138q32 -79 43 -95q30 -45 100 -50q13 -1 27 -1h45v-102h-661v102h92q34 0 54 16t20 42q0 17 -15 47l-98 248h-418l-94 -248q-2 -2 -7 -24.5t-5 -30.5q0 -11 6.5 -24t15.5 -17q18 -9 58 -9h92v-102h-525z M516 555h338l-166 428z" />
<glyph unicode="B" horiz-adv-x="1333" d="M55 0v102h39q94 0 125 31q15 15 20 38t5 81v862q0 58 -5 80.5t-20 36.5q-33 33 -125 33h-39v102h750q149 0 248.5 -96.5t99.5 -239.5q0 -76 -35.5 -142t-97.5 -106q-35 -21 -65.5 -30t-86.5 -13q183 -32 270 -121.5t87 -244.5q0 -182 -123 -283q-57 -48 -130 -69 t-181 -21h-736zM539 240q0 -98 25 -127t110 -29q95 0 147 35q42 32 65 97t23 151q0 205 -129 264q-30 14 -60 18t-110 4h-71v-413zM539 756h63q67 0 103 6.5t65 23.5q84 50 84 226q0 120 -50.5 174.5t-162.5 54.5h-102v-485z" />
<glyph unicode="C" horiz-adv-x="1515" d="M109 668q0 161 57 300.5t156.5 238t240 154.5t303.5 56q242 0 428 -129l41 96h76l2 -28q0 -68 4 -123q1 -57 8 -164l15 -182l2 -19h-107q-24 89 -55 152q-65 128 -171 198t-235 70q-204 0 -323 -164.5t-119 -447.5q0 -278 118 -434t327 -156q159 0 293.5 86.5 t211.5 237.5l103 -76q-91 -186 -257 -285.5t-386 -99.5q-214 0 -381 91t-259.5 254.5t-92.5 373.5z" />
<glyph unicode="D" horiz-adv-x="1617" d="M55 0v102h45q86 0 125 31q14 15 18.5 38t4.5 81v862q0 56 -4.5 79.5t-18.5 37.5q-33 33 -125 33h-45v102h394q67 0 122 2h156q137 0 204 -7.5t148 -31.5q195 -59 312.5 -237.5t117.5 -417.5q0 -302 -171 -488t-451 -186h-832zM543 233q0 -83 29.5 -108t129.5 -25 q192 0 295 68q91 62 142 195t51 311q0 370 -227 520q-66 39 -139 54.5t-197 15.5h-84v-1031z" />
<glyph unicode="E" horiz-adv-x="1294" d="M55 0v102h45q87 0 123 31q15 15 20 38t5 81v862q0 58 -5 80.5t-20 36.5q-33 33 -123 33h-45v102h1092l16 -354h-98q-9 91 -43 147q-17 35 -47 62q-29 25 -60.5 34t-91.5 9h-276v-476h125q71 0 104 43.5t33 137.5h111v-498h-111v25q0 99 -39.5 138.5t-138.5 39.5h-84v-453 q1 -44 4.5 -58.5t17.5 -31.5q23 -29 86 -29h213q85 0 131.5 20t81.5 71q61 88 82 235h97l-23 -428h-1182z" />
<glyph unicode="F" horiz-adv-x="1177" d="M55 0v102h47q89 0 125 31q14 15 18.5 38t4.5 81v862q0 58 -4.5 80.5t-18.5 36.5q-33 33 -125 33h-47v102h1075l44 -356h-105l-6 20q-41 133 -76 176q-26 32 -67 45t-119 13h-254v-492h82q88 0 126 26.5t54 96.5q0 9 10 59h101v-485h-101q0 112 -46 157.5t-157 45.5h-69 v-420q0 -61 3.5 -82.5t18.5 -36.5q36 -31 125 -31h45v-102h-684z" />
<glyph unicode="G" horiz-adv-x="1632" d="M109 647q0 163 56 306t153.5 244.5t234.5 160.5t293 59q117 0 216 -31.5t204 -103.5l26 84h105v-475h-105q-22 89 -47 151q-47 115 -148.5 181.5t-230.5 66.5q-198 0 -317 -168.5t-119 -449.5q0 -266 113 -429t297 -163q159 0 295 106v164q0 57 -5 80t-20 37 q-33 33 -125 33h-43v102h653v-102h-26q-89 0 -125 -33q-14 -14 -18.5 -36.5t-4.5 -80.5v-307h-22q-109 0 -191 -23l-129 -36q-122 -35 -254 -35q-327 0 -521.5 190t-194.5 508z" />
<glyph unicode="H" horiz-adv-x="1675" d="M55 0v102h45q89 0 125 31q14 16 19.5 39.5t5.5 79.5v862q0 55 -5.5 79t-19.5 38q-33 33 -125 33h-45v102h680v-102h-41q-92 0 -125 -33q-15 -13 -19.5 -35.5t-4.5 -81.5v-336h590v336q0 56 -4.5 79.5t-18.5 37.5q-33 33 -125 33h-43v102h678v-102h-43q-90 0 -123 -33 q-15 -13 -19.5 -35.5t-4.5 -81.5v-862q0 -59 4.5 -81.5t19.5 -37.5q31 -31 123 -31h43v-102h-678v102h43q86 0 125 31q14 15 18.5 38t4.5 81v412h-590v-412q0 -59 4.5 -81.5t19.5 -37.5q36 -31 125 -31h41v-102h-680z" />
<glyph unicode="I" horiz-adv-x="790" d="M55 0v102h45q87 0 123 31q15 15 20 38t5 81v862q0 58 -5 80.5t-20 36.5q-33 33 -123 33h-45v102h680v-102h-45q-90 0 -123 -33q-15 -13 -19.5 -36t-4.5 -81v-862q0 -59 4.5 -81.5t19.5 -37.5q36 -31 123 -31h45v-102h-680z" />
<glyph unicode="J" horiz-adv-x="753" d="M-342 -342q0 57 38.5 92t98.5 35q53 0 87 -29t34 -75q0 -22 -8 -33l-12 -25q-5 -10 -5 -14q0 -22 29 -36.5t70 -14.5q117 0 178 90.5t61 265.5v1200q0 58 -4.5 81t-19.5 36q-33 33 -125 33h-25v102h658v-102h-41q-90 0 -123 -33q-15 -14 -20 -36.5t-5 -80.5v-1157 q0 -129 -43 -227q-57 -132 -192.5 -213.5t-296.5 -81.5q-143 0 -238.5 63.5t-95.5 159.5z" />
<glyph unicode="K" horiz-adv-x="1585" d="M55 0v102h47q86 0 125 31q14 15 18.5 38.5t4.5 80.5v862q0 57 -4.5 80t-18.5 37q-33 33 -125 33h-47v102h688v-102h-49q-92 0 -125 -33q-14 -14 -19 -37.5t-5 -79.5v-391q40 37 110.5 103t129 120.5t110.5 102.5q60 57 82 86.5t22 54.5q0 35 -29 54.5t-83 19.5h-43v102 h639v-102q-4 -1 -8.5 -1.5t-7.5 -1t-5 -1.5q-31 -4 -54 -8t-45.5 -13t-33 -12t-32 -18t-26 -18t-31 -25t-32.5 -27q-28 -23 -53 -45t-41 -36.5t-20 -17.5q-110 -101 -207 -190l379 -518q14 -21 34 -49q44 -59 74 -91t60 -51q59 -39 147 -39v-102h-694v102h51q31 0 49 4.5 t26.5 13.5t8.5 25q0 23 -35 68l-323 434l-119 -108v-287q0 -57 5 -80t19 -39q36 -31 125 -31h49v-102h-688z" />
<glyph unicode="L" horiz-adv-x="1261" d="M55 0v102h43q89 0 125 31q14 15 18.5 38t4.5 81v862q0 58 -4.5 80.5t-18.5 36.5q-33 33 -125 33h-43v102h680v-102h-45q-92 0 -125 -33q-14 -14 -18 -36.5t-4 -80.5v-893q0 -64 26 -87t97 -25l141 -3h12q163 0 241.5 74.5t100.5 247.5h105l-19 -428h-1192z" />
<glyph unicode="M" horiz-adv-x="1921" d="M55 0v102h47q87 0 123 31q15 15 20 38t5 81v862q0 58 -5 80.5t-20 36.5q-33 33 -123 33h-47v102h529l381 -969l387 969h514v-102h-49q-78 0 -111 -22t-33 -75v-915q0 -89 30.5 -119.5t121.5 -30.5h41v-102h-684v102h51q87 0 123 31q15 15 19.5 37.5t4.5 81.5v788 l-415 -1040h-156l-410 1053v-856q0 -55 35.5 -75t110.5 -20h51v-102h-541z" />
<glyph unicode="N" horiz-adv-x="1593" d="M55 0v102h41q89 0 125 31q14 15 18.5 38t4.5 81v862q0 56 -4.5 79.5t-18.5 37.5q-33 33 -125 33h-41v102h506l658 -977v725q0 56 -4.5 79.5t-18.5 37.5q-33 33 -125 33h-51v102h545v-102h-39q-90 0 -123 -33q-15 -14 -20 -37t-5 -80v-1114h-239l-736 1092v-840 q0 -58 5 -81t20 -38q36 -31 125 -31h45v-102h-543z" />
<glyph unicode="O" horiz-adv-x="1746" d="M123 674q0 157 58 295t158 236t240 155t300 57q213 0 383.5 -92t266 -256t95.5 -369q0 -161 -57 -301t-156.5 -238.5t-240 -155t-302.5 -56.5q-160 0 -298.5 54.5t-236.5 150t-154 230.5t-56 290zM444 696q0 -302 110.5 -461t319.5 -159q159 0 256 82q80 66 126.5 209.5 t46.5 328.5q0 236 -82 400q-46 94 -136.5 146t-207.5 52q-209 0 -321 -154.5t-112 -443.5z" />
<glyph unicode="P" horiz-adv-x="1232" d="M55 0v102h47q89 0 125 31q14 15 18.5 38t4.5 81v862q0 58 -4.5 80.5t-18.5 36.5q-33 33 -125 33h-47v102h787q177 0 277 -90.5t100 -249.5q0 -155 -95 -268q-122 -140 -395 -140q-16 0 -31 3l-133 4h-20v-373q0 -59 4.5 -81.5t19.5 -37.5q36 -31 125 -31h45v-102h-684z M545 727q74 -4 78 -4q89 0 153 18q73 20 114.5 87t41.5 165q0 75 -29 137q-34 78 -91.5 107t-178.5 29q-43 0 -88 -2v-537z" />
<glyph unicode="Q" horiz-adv-x="1718" d="M109 676q0 162 55.5 300t154.5 235t241 151.5t310 54.5q158 0 295.5 -53.5t235 -147.5t153.5 -226.5t56 -284.5q0 -243 -134 -440t-352 -273l-90 -31q-24 -10 -72.5 -29.5t-91 -37t-61.5 -25.5l49 -2q53 -1 89.5 -3t70.5 -6.5t62 -10t69 -15.5q102 -26 233 -86 q125 -57 230 -90q76 -23 121 -23q58 0 99.5 35.5t80.5 112.5l80 -37q-20 -59 -42.5 -101t-52 -72.5t-71.5 -57.5q-115 -74 -258 -74q-88 0 -182 28.5t-170 79.5l-66 43q-72 45 -142.5 83.5t-163 74t-151.5 35.5q-34 0 -71.5 -12t-59.5 -31l-26 -23q-3 -2 -7 -4.5t-8.5 -4.5 t-10 -3.5t-10.5 -3t-9.5 -2t-8.5 -0.5q-26 0 -45.5 24.5t-19.5 55.5q0 28 25 46t79 28l43 8q124 23 244 92q-110 11 -161.5 21.5t-123.5 39.5q-193 75 -304 252.5t-111 409.5zM432 686q0 -221 66 -371q23 -57 59.5 -101.5t83 -75t102.5 -46.5t119 -16q140 0 235 70.5 t143 209.5t48 344q0 279 -114 437.5t-314 158.5q-206 0 -317 -158.5t-111 -451.5z" />
<glyph unicode="R" horiz-adv-x="1458" d="M55 0v102h47q89 0 125 31q14 15 18.5 38t4.5 81v862q0 56 -4.5 79.5t-18.5 37.5q-33 33 -125 33h-47v102h811q166 0 261.5 -91t95.5 -251q0 -151 -97 -254q-57 -59 -120 -82.5t-183 -30.5q99 -16 157 -42t95.5 -64.5t95.5 -122.5q69 -97 113 -168q51 -76 67.5 -97 t37.5 -38q24 -18 43.5 -24.5t52.5 -6.5h14v-94h-369q-16 16 -22 20q-63 63 -113 142q-17 25 -98 162q-115 189 -184 254q-48 45 -125 45q-3 0 -17 -1t-24 -1v-369q0 -59 4.5 -81.5t19.5 -37.5q31 -31 123 -31h43v-102h-682zM547 727h108q141 0 207 67t66 210q0 90 -32 153 t-93 88q-28 12 -49.5 15.5t-77.5 3.5h-129v-537z" />
<glyph unicode="S" horiz-adv-x="1155" d="M96 -6l17 455h80l6 -21q26 -90 48 -131.5t68 -89.5q116 -119 271 -119q111 0 180.5 60t69.5 157q0 99 -86 164q-63 47 -213 117l-117 53q-56 26 -112 63t-87 68q-47 44 -74.5 113.5t-27.5 144.5q0 170 122 279.5t312 109.5q92 0 180.5 -29t155.5 -81l35 79h84v-397h-84 l-11 33q-28 88 -53.5 128t-75.5 73q-95 65 -221 65q-92 0 -148.5 -44.5t-56.5 -117.5q0 -70 68 -129q39 -34 94 -66t156 -77q54 -25 90.5 -43.5t82.5 -46t75.5 -52.5t61 -59.5t49 -71t29 -83.5t11.5 -101q0 -200 -131.5 -324t-343.5 -124q-103 0 -178 28t-170 101l-21 16 l-38 -100h-97z" />
<glyph unicode="T" horiz-adv-x="1359" d="M41 940l27 426h1228l23 -426h-105q-11 157 -89 240.5t-214 83.5h-84v-1012q0 -58 5 -81t20 -38q36 -31 123 -31h47v-102h-690v102h53q87 0 123 31q15 15 19.5 37.5t4.5 81.5v1012h-77q-98 0 -159.5 -31t-98.5 -98q-45 -83 -54 -195h-102z" />
<glyph unicode="U" horiz-adv-x="1597" d="M55 1264v102h652v-102h-43q-89 0 -125 -33q-14 -14 -18.5 -37.5t-4.5 -79.5v-637q0 -112 13.5 -163t54.5 -101q91 -111 278 -111q88 0 162.5 28t118.5 79q48 56 66 130.5t18 219.5v555q0 58 -5 80.5t-20 36.5q-33 33 -125 33h-45v102h520v-102h-20q-90 0 -123 -33 q-15 -14 -20 -36.5t-5 -80.5v-637q0 -150 -35 -240t-124 -163q-151 -125 -416 -125q-293 0 -441.5 133t-148.5 395v637q0 58 -4 80.5t-18 36.5q-33 33 -125 33h-17z" />
<glyph unicode="V" horiz-adv-x="1562" d="M14 1264v102h637v-102q-39 -1 -64.5 -4.5t-42 -12t-23.5 -21.5t-7 -32q0 -18 18 -66q61 -150 176.5 -424.5t145.5 -345.5l297 721q33 81 33 117q0 22 -16 37t-42 20q-35 8 -125 11v102h549v-102q-38 -2 -84 -11q-27 -7 -47 -24q-13 -10 -22.5 -20.5t-21 -28t-23.5 -42 t-29 -63.5q-78 -164 -156 -350l-297 -725h-172l-467 1079q-45 99 -71 125q-39 42 -146 60z" />
<glyph unicode="W" horiz-adv-x="2004" d="M20 1264v102h619v-102l-14 -2l-43 -2q-57 -5 -77 -17.5t-20 -44.5q0 -40 29 -129l201 -639l258 936h182l299 -936l188 664l11 36q2 9 6 21.5t5 17t2 13.5t1 20q0 32 -20 45q-19 13 -117 15l-27 2v102h482v-102q-56 -5 -79 -12t-46 -27q-25 -22 -37 -49q-40 -100 -60 -179 l-286 -997h-179l-297 918l-260 -918h-190l-354 1104q-17 60 -43 106q-18 26 -41 37t-72 15q-13 0 -21 2z" />
<glyph unicode="X" horiz-adv-x="1452" d="M20 0v102l21 2q79 12 121 39q22 14 50 40t42 44l330 437l-320 469q-17 27 -42 54.5t-44 39.5q-49 34 -141 37v102h678v-102h-10q-64 0 -91.5 -15t-27.5 -49q0 -28 37 -80q22 -31 46.5 -67t53.5 -80t45 -68l145 185q40 50 56 77q14 22 14 39q0 31 -35.5 44t-128.5 14v102 h613v-102q-77 -5 -118 -16t-85 -42q-26 -19 -61.5 -53.5t-57.5 -62.5l-250 -324q25 -36 152 -219.5t194 -282.5q64 -95 110.5 -127.5t115.5 -34.5v-102h-664v102h23q69 0 95.5 11.5t26.5 40.5q0 18 -15.5 47.5t-59.5 93.5l-156 229l-211 -272q-18 -27 -45 -62 q-14 -17 -14 -36q0 -49 106 -52h66v-102h-564z" />
<glyph unicode="Y" horiz-adv-x="1447" d="M20 1264v102h639v-102l-16 -2h-41q-72 0 -72 -56q0 -25 52 -110l200 -334l213 356l21 33q18 27 18 53q0 52 -108 58h-41l-21 2v102h563v-102q-20 -4 -24 -4q-26 -4 -70 -13q-35 -8 -57 -20q-31 -14 -49.5 -34.5t-52.5 -74.5l-310 -514v-352q0 -58 5 -81t20 -38 q31 -31 123 -31h43v-102h-682v102h47q92 0 123 31q15 15 19.5 37.5t4.5 81.5v338l-342 528q-52 78 -80 109q-19 20 -39 26.5t-63 8.5z" />
<glyph unicode="Z" horiz-adv-x="1275" d="M25 0v43l831 1221h-307q-149 0 -213 -58q-87 -82 -139 -268h-103l43 428h1108v-51l-819 -1213h299q55 2 119 4q77 0 125 26t80 83q40 68 90 229h106l-41 -444h-1179z" />
<glyph unicode="[" horiz-adv-x="659" d="M190 -326v1692h388v-96h-183v-1495h183v-101h-388z" />
<glyph unicode="\" d="M53 1536h201l678 -1706h-199z" />
<glyph unicode="]" horiz-adv-x="659" d="M82 -229h182v1493h-182v102h385v-1692h-385v97z" />
<glyph unicode="^" d="M31 717l346 653h270l346 -653h-217l-264 491l-264 -491h-217z" />
<glyph unicode="_" d="M0 -117h1024v-184h-1024v184z" />
<glyph unicode="`" d="M84 1290q0 31 43 31h287l202 -215q23 -21 23 -41q0 -19 -11 -31t-28 -12q-9 0 -29 10l-452 217q-2 1 -7.5 5t-8 6t-7 6t-6.5 7t-4 7.5t-2 9.5z" />
<glyph unicode="a" horiz-adv-x="1058" d="M72 217q0 114 64 184.5t198 102.5l123 28l118 35l17 6v115q0 125 -123 125q-103 0 -121 -106l-6 -35q-6 -38 -34 -59t-72 -21q-51 0 -86 29.5t-35 70.5q0 98 112 172t262 74q97 0 186 -35t130 -94q28 -35 36.5 -77t8.5 -140v-377q0 -47 12 -66.5t43 -19.5q34 0 50 26 t20 91h96q-1 -132 -72 -206.5t-194 -74.5q-157 0 -213 121q-142 -121 -295 -121q-101 0 -163 69.5t-62 182.5zM332 256q0 -54 29.5 -87.5t76.5 -33.5q63 0 154 68v243l-141 -43q-56 -17 -87.5 -56t-31.5 -91z" />
<glyph unicode="b" horiz-adv-x="1181" d="M29 1264v98q49 2 194 22q133 21 197 43v-604q66 57 125 81t137 24q189 0 303.5 -127t114.5 -334q0 -218 -121.5 -360t-308.5 -142q-181 0 -293 139l-90 -118h-127v1138q-2 28 -4 60q-2 39 -27.5 57t-85.5 21zM420 262q43 -72 88 -102.5t108 -30.5q97 0 147 79.5t50 233.5 q0 160 -56 247t-157 87q-51 0 -90 -20t-90 -74v-420z" />
<glyph unicode="c" horiz-adv-x="946" d="M82 432q0 217 135 356.5t344 139.5q138 0 233 -61.5t95 -151.5q0 -50 -35.5 -84.5t-87.5 -34.5q-100 0 -100 92q0 61 -29.5 93t-85.5 32q-87 0 -133.5 -90t-46.5 -256q0 -170 58.5 -260t168.5 -90q144 0 236 164l116 -43q-51 -127 -159 -200t-246 -73q-201 0 -332 133 t-131 334z" />
<glyph unicode="d" horiz-adv-x="1177" d="M82 442q0 214 118 355t296 141q142 0 243 -104v342q0 49 -24 65q-16 11 -31 14.5t-59 4.5h-15v100q176 12 371 63l20 4v-1218l3 -39q0 -28 18 -39.5t61 -11.5h54v-103q-33 -3 -94.5 -9t-73.5 -7l-148 -23l-24 -4q-33 41 -39 125q-53 -69 -120 -101t-159 -32 q-177 0 -287 133t-110 344zM367 453q0 -143 59 -232.5t154 -89.5q45 0 87 22.5t72 61.5v496q-75 69 -161 69q-95 0 -153 -89.5t-58 -237.5z" />
<glyph unicode="e" horiz-adv-x="1048" d="M82 446q0 211 132 346.5t337 135.5q189 0 309.5 -122t120.5 -314q0 -21 -2 -37h-617q6 -166 65.5 -252t166.5 -86q152 0 262 155l111 -63q-56 -110 -172 -177t-252 -67q-209 0 -335 131.5t-126 349.5zM356 549h353q-1 134 -40.5 198t-119.5 64t-130 -67t-63 -195z" />
<glyph unicode="f" horiz-adv-x="636" d="M41 0v102h53q43 0 59.5 10.5t20.5 41.5v39l2 53v534h-135v119h135v129q0 164 101 267.5t262 103.5q111 0 177 -48t66 -130q0 -52 -32.5 -87.5t-79.5 -35.5q-43 0 -70 25t-27 63v18l5 21q2 4 2 10q0 23 -18.5 38t-45.5 15q-44 0 -62 -41.5t-18 -142.5v-205h185v-119h-185 v-534l2 -53v-39q4 -31 20.5 -41.5t59.5 -10.5h72v-102h-549z" />
<glyph unicode="g" horiz-adv-x="1114" d="M20 -244q0 83 55.5 133t147.5 50q32 0 80 -11q-72 -72 -72 -155q0 -89 76 -140t211 -51q133 0 212 47t79 125q0 60 -42 90t-138 41l-86 9q-201 20 -283 63q-54 25 -83.5 68t-29.5 96q0 72 47.5 113.5t145.5 54.5q-48 13 -73 24.5t-52 32.5q-55 41 -85 106.5t-30 141.5 q0 155 108.5 249.5t287.5 94.5q190 0 305 -98q76 88 176 88q68 0 115 -39t47 -94q0 -40 -27.5 -68.5t-67.5 -28.5q-27 0 -46.5 15t-36.5 49q-22 43 -58 43q-18 0 -37 -17q-1 -1 -5 -4t-7 -4q59 -82 59 -184q0 -51 -14 -99t-41.5 -89.5t-66.5 -71.5q-59 -46 -112 -60 t-190 -18q-6 0 -17 -1q-21 0 -31.5 -0.5t-29 -2.5t-28 -4t-22.5 -7t-19.5 -11t-11 -15.5t-4.5 -21.5q0 -45 92 -54q25 -2 143 -6l96 -4q88 -3 150.5 -18.5t110 -48t71 -88t23.5 -136.5q0 -175 -135.5 -278t-364.5 -103q-222 0 -357 81.5t-135 215.5zM354 594 q0 -76 16.5 -124.5t50 -71.5t85.5 -23q80 0 116.5 53t36.5 168q0 80 -16 131t-49 75.5t-84 24.5q-79 0 -117.5 -57t-38.5 -176z" />
<glyph unicode="h" horiz-adv-x="1177" d="M41 0v102h51q43 0 61.5 10.5t18.5 41.5q2 6 2 39l2 53v903q0 50 -3.5 64t-18.5 28q-17 17 -97 23h-16v102q240 27 369 55l24 6v-649q156 150 307 150q106 0 181 -62q46 -35 64 -85t18 -142v-393l2 -53v-39q0 -30 18.5 -41t60.5 -11h52v-102h-492v102h14q43 0 61.5 10.5 t18.5 41.5q2 4 2 39v415q0 67 -30.5 105.5t-85.5 38.5q-91 0 -191 -80v-426l2 -53v-39q0 -31 18.5 -41.5t61.5 -10.5h23v-102h-498z" />
<glyph unicode="i" horiz-adv-x="616" d="M41 0v102h53q43 0 61.5 10.5t18.5 41.5q2 6 2 39l2 53v428q0 64 -26.5 82t-98.5 18h-12v103l22 2q145 13 166 16l17 3q18 3 59.5 10t89.5 14l43 6v-735q0 -33 2 -39q0 -32 18.5 -42t61.5 -10h55v-102h-534zM150 1165q0 62 43 105t104 43t104 -43t43 -105q0 -61 -43 -104 t-104 -43t-104 43t-43 104z" />
<glyph unicode="j" horiz-adv-x="616" d="M-168 -346q0 51 30.5 82t80.5 31q38 0 67 -19.5t37 -50.5l10 -43q9 -37 43 -37q38 0 55 27.5t17 87.5v946q0 59 -23 78.5t-92 19.5h-16v103l22 4l177 16q96 9 194 29v-1057q0 -180 -96.5 -279.5t-271.5 -99.5q-108 0 -171 43.5t-63 118.5zM145 1165q0 61 43.5 104.5 t104.5 43.5t104 -43t43 -105q0 -61 -43 -104t-104 -43q-62 0 -105 43t-43 104z" />
<glyph unicode="k" horiz-adv-x="1134" d="M41 0v102h53q56 0 74 21q5 7 8 31v39l2 53v887l-2 36q0 53 -24 74t-84 21h-27v102l166 12q40 6 119 22.5t112 26.5v-901q17 14 105.5 88t136.5 113q6 6 13.5 11.5t10.5 8t3 3.5q12 12 12 22q0 12 -16 18t-58 7h-14v102h442v-102q-118 -8 -199 -74l-215 -172 q27 -30 151.5 -168t190.5 -213q53 -59 127 -68v-102h-487v102h14l39 2q23 0 23 19q0 8 -12 24l-228 271l-39 -29v-196q0 -11 1 -24t1 -15q0 -30 19 -41t61 -11h33v-102h-512z" />
<glyph unicode="l" horiz-adv-x="614" d="M41 0v102h53q43 0 61.5 10.5t18.5 41.5q0 16 2 39v942q0 85 -22 106.5t-113 22.5v102l29 2q272 38 370 59v-1234q0 -35 2 -39q0 -31 18.5 -41.5t61.5 -10.5h51v-102h-532z" />
<glyph unicode="m" horiz-adv-x="1740" d="M41 0v102h57q55 0 72 21q5 7 8 31v39l2 53v399l-2 37q0 36 -10 55.5t-33 28t-65 8.5h-29v103q240 20 369 51q21 -41 30 -131q74 68 143.5 99.5t145.5 31.5q39 0 77 -7t69.5 -20.5t52.5 -30.5q17 -15 27.5 -28.5t29.5 -44.5l23 18q39 27 62.5 42t61.5 34t77 28t81 9 q103 0 176.5 -47t89.5 -131q8 -33 9.5 -59t1.5 -116v-382q2 -23 2 -39q0 -31 18.5 -41.5t61.5 -10.5h51v-102h-494v102h19q42 0 59 10.5t21 41.5v39l2 53v387q0 25 -9.5 47t-26 38t-40.5 25t-51 9q-87 0 -174 -76v-430l2 -53v-39q3 -22 11 -32.5t23.5 -15t44.5 -4.5h19v-102 h-459v102h17q56 0 73 21q5 7 8 31v39l3 53v381q-17 121 -134 121q-47 0 -87 -21t-87 -70v-464q2 -18 2 -39q0 -30 19 -41t61 -11h23v-102h-504z" />
<glyph unicode="n" horiz-adv-x="1171" d="M41 0v102h57q54 0 72 21q5 7 8 31v39l2 53v399l-2 37q0 52 -23 72t-85 20h-29v103q233 16 371 51q12 -27 17.5 -49.5t12.5 -83.5q72 65 136 99t151 34q127 0 197.5 -72t70.5 -201l-2 -92v-317l2 -53q0 -33 2 -39q0 -31 18.5 -41.5t61.5 -10.5h51v-102h-493v102h16 q43 0 61.5 10.5t18.5 41.5q0 2 1 15.5t1 23.5v389q0 65 -12 102q-10 29 -41.5 47.5t-69.5 18.5q-34 0 -80.5 -19.5t-89.5 -54.5v-483q0 -35 2 -39q0 -31 18.5 -41.5t61.5 -10.5h21v-102h-504z" />
<glyph unicode="o" horiz-adv-x="1132" d="M82 461q0 211 132.5 339t350.5 128q220 0 353 -128t133 -339q0 -215 -137.5 -355.5t-348.5 -140.5q-209 0 -346 140.5t-137 355.5zM367 451q0 -186 48.5 -273.5t151.5 -87.5t151 87.5t48 273.5q0 178 -49 263t-150 85q-103 0 -151.5 -84.5t-48.5 -263.5z" />
<glyph unicode="p" horiz-adv-x="1234" d="M41 -403h57q58 0 72 20q4 6 8 29v41l2 53v905l-2 37q0 52 -23 72t-85 20h-29v103l49 4q112 12 146 18q4 0 126 21l50 8q21 -48 30 -129q103 79 160 104t141 25q177 0 294.5 -133.5t117.5 -331.5q0 -212 -126 -355t-312 -143q-71 0 -139 27q-46 17 -73 36.5t-63 61.5v-350 l2 -53v-41q0 -26 18.5 -37.5t61.5 -11.5h54v-103h-537v103zM442 242q35 -54 88 -84.5t111 -30.5q112 0 170.5 87t58.5 253q0 155 -52 236t-150 81q-73 0 -126 -36.5t-100 -120.5v-385z" />
<glyph unicode="q" horiz-adv-x="1206" d="M82 436q0 215 123.5 353.5t314.5 138.5q162 0 277 -94l30 10q95 27 191 74l39 18v-1249q0 -33 2 -41q0 -30 18.5 -39.5t61.5 -9.5h53v-103h-551v103h72q43 0 61.5 9.5t18.5 39.5q2 8 2 41l2 53v360q-29 -34 -45.5 -49t-38.5 -28q-40 -25 -99 -41.5t-112 -16.5 q-186 0 -303 132t-117 339zM367 444q0 -145 59.5 -229t163.5 -84q111 0 207 102v414q-69 135 -203 135q-104 0 -165.5 -91.5t-61.5 -246.5z" />
<glyph unicode="r" horiz-adv-x="841" d="M41 0v102h53q43 0 61.5 10.5t18.5 41.5q2 12 2 39v477q0 69 -22 88q-11 7 -54 16h-59v103q63 2 98 5t94 15q161 30 166 31q39 -59 39 -152v-16q116 158 252 158q63 0 102 -41t39 -107q0 -63 -33 -103t-85 -40q-24 0 -45.5 10.5t-28.5 26.5q-1 1 -2.5 3.5t-5 8t-6.5 10.5 q-17 39 -52 39q-51 0 -135 -90v-442q0 -10 1 -23.5t1 -15.5q0 -30 19 -41t61 -11h68v-102h-547z" />
<glyph unicode="s" horiz-adv-x="796" d="M76 0q0 4 0.5 7.5t1 5.5t0.5 3q2 20 2 117q0 72 -4 186h112q15 -98 68.5 -154t130.5 -56q51 0 84 28t33 72q0 56 -51 90q-21 12 -101 55q-121 62 -170 101q-44 35 -70 91.5t-26 119.5q0 117 78.5 189.5t204.5 72.5q124 0 213 -66l12 37h104q-6 -61 -6 -174q0 -82 6 -131 h-104q-14 101 -61 154t-123 53q-51 0 -83 -25t-32 -65q0 -31 24.5 -52.5t106.5 -64.5l55 -27q89 -47 133 -75q58 -39 89.5 -102.5t31.5 -137.5q0 -124 -89 -205.5t-224 -81.5q-73 0 -127.5 21t-106.5 67v-53h-112z" />
<glyph unicode="t" horiz-adv-x="671" d="M33 778v121q50 8 73 15t52 24q40 23 63 61q20 29 29 60.5t18 101.5l2 33h140v-295h227v-121h-227v-557q0 -45 7 -70.5t22.5 -37t43.5 -11.5q32 0 58.5 21.5t58.5 73.5l113 -37q-103 -195 -299 -195q-62 0 -116 21.5t-89 56.5q-34 34 -46.5 76t-12.5 121v538h-117z" />
<glyph unicode="u" horiz-adv-x="1148" d="M41 797v102h379v-555l4 -45q1 -47 7.5 -68t23.5 -38q37 -37 98 -37q76 0 164 71v441l-2 37q0 52 -23.5 72t-85.5 20h-28v102h397v-653l2 -37q1 -52 24.5 -72t83.5 -20h23v-103l-35 -2q-174 -12 -321 -41q-20 39 -35 138q-72 -77 -137.5 -110.5t-141.5 -33.5 q-90 0 -162 47.5t-96 122.5q-13 34 -15.5 65t-2.5 150v318l-2 37q-1 52 -25 72t-84 20h-10z" />
<glyph unicode="v" horiz-adv-x="1112" d="M14 797v102h523v-102h-13l-35 -2q-18 -2 -30 -2q-2 0 -7.5 -1t-7.5 -1q-16 -6 -16 -25q0 -16 14 -47l183 -430l180 418q16 38 16 53q0 22 -19 29.5t-77 7.5h-10v102h383v-102l-23 -2q-44 -1 -69.5 -19t-44.5 -59q-66 -137 -185 -393.5t-151 -323.5h-146l-305 668 q-37 80 -67 104.5t-93 24.5z" />
<glyph unicode="w" horiz-adv-x="1511" d="M14 797v102h508v-102h-12l-27 -2q-42 0 -57.5 -8.5t-15.5 -30.5q0 -2 1 -6.5t1 -6.5l6 -24q1 -2 4.5 -12t5.5 -17l113 -336l211 545h151l189 -545l141 351q14 31 14 51q0 19 -14.5 27.5t-48.5 11.5h-25l-18 2v102h356v-102q-3 0 -8.5 -1t-7.5 -1q-47 -2 -68 -23 q-27 -23 -43 -67l-289 -705h-141l-170 512l-209 -512h-155l-242 666l-14 41q-19 56 -44 72.5t-92 17.5z" />
<glyph unicode="x" horiz-adv-x="1120" d="M20 0v102l13 2l47 2q58 6 133 84l227 236q-27 31 -73.5 84t-85.5 98.5t-72 85.5q-46 56 -82 78t-107 25v102h531v-102h-8l-25 -2q-30 -2 -41.5 -8t-11.5 -21q0 -9 20 -33l115 -139l129 139q21 21 21 39q0 14 -17.5 19.5t-62.5 5.5h-19v102h430v-102q-42 -5 -80 -15 q-32 -7 -55 -20q-19 -10 -30 -19.5t-48 -46.5l-186 -200l252 -306q19 -24 33.5 -38t34 -26.5t43.5 -18t55 -5.5v-102h-537v102h21q54 0 73 4t19 15q0 9 -14 26q-11 11 -11 13l-131 162l-149 -162q-23 -23 -23 -35q0 -23 74 -23h18v-102h-420z" />
<glyph unicode="y" horiz-adv-x="1030" d="M14 797v102h492v-102h-17q-54 0 -70 -6.5t-16 -28.5q0 -14 7 -31l176 -389l180 401q4 12 4 19q0 33 -55 33l-33 2h-18v102h354v-102q-49 -2 -72 -17q-28 -17 -72 -110l-442 -983q-49 -112 -106.5 -161.5t-135.5 -49.5q-71 0 -117 38.5t-46 96.5q0 37 24 76q52 -21 96 -21 q76 0 138 53q32 29 56 71t69 144l41 89l-324 696q-20 42 -45.5 59.5t-67.5 18.5z" />
<glyph unicode="z" horiz-adv-x="923" d="M41 0v76l516 721h-195q-53 0 -73 -9q-42 -14 -70 -75l-55 -111h-92l37 297h761v-78l-508 -719h195q42 0 94 13q43 18 88 112l45 103h86l-24 -330h-805z" />
<glyph unicode="{" d="M272 418v170q60 15 87.5 55t27.5 115v340q0 153 70.5 219.5t232.5 66.5h47l54 -2v-178h-19q-90 0 -131 -18q-28 -13 -38.5 -44.5t-10.5 -97.5v-301q0 -74 -23 -141q-12 -33 -33 -54.5t-69 -51.5q47 -27 73 -57.5t39 -76.5t13 -116v-326q0 -80 39.5 -105.5t134.5 -25.5h25 v-178q-13 0 -31 -1t-23 -1h-51q-160 0 -229.5 69.5t-69.5 227.5v327q0 88 -26 130t-89 55z" />
<glyph unicode="|" d="M410 -512v2048h204v-2048h-204z" />
<glyph unicode="}" d="M266 -211h23q39 0 65 2.5t51 10.5t38.5 24t17.5 41q6 24 6 82v301q0 77 22 141q11 33 32.5 55.5t70.5 51.5q-70 41 -97.5 94t-27.5 156v325q-2 36 -9.5 60t-19 38.5t-34.5 21.5t-47.5 9t-65.5 2h-25v178q14 0 32 1t21 1h54q160 0 229.5 -69.5t69.5 -227.5v-327 q0 -87 25.5 -129.5t88.5 -55.5v-169q-61 -15 -87.5 -55t-26.5 -115v-340q0 -153 -70.5 -220t-232.5 -67h-50l-53 2v178z" />
<glyph unicode="~" horiz-adv-x="1366" d="M188 1247l15 29q23 52 46 89t55.5 71t77 51.5t99.5 17.5q77 0 221 -61q26 -10 58 -23t39 -16q49 -19 94 -19q53 0 88.5 26.5t77.5 96.5l119 -69q-27 -56 -54 -97t-64 -78t-86.5 -56t-109.5 -19q-59 0 -184 49l-107 43q-61 25 -108 25q-56 0 -91.5 -35.5t-70.5 -100.5z " />
<glyph unicode="&#xa0;" horiz-adv-x="681" d="M0 0z" />
<glyph unicode="&#xa1;" horiz-adv-x="630" d="M150 762q0 69 48 117.5t117 48.5q68 0 116 -48.5t48 -117.5q0 -68 -48.5 -116t-115.5 -48q-69 0 -117 48t-48 116zM197 -426q0 15 2 31q9 130 26.5 367.5t22.5 299.5q5 59 19.5 81t51.5 22q55 0 64 -62l4 -22q10 -125 27 -357t22 -294l2 -35q2 -16 2 -31q0 -43 -34 -70.5 t-87 -27.5q-54 0 -88 27.5t-34 70.5z" />
<glyph unicode="&#xa2;" horiz-adv-x="1058" d="M123 664q0 212 115 346.5t313 156.5v185h96v-185q134 -19 207.5 -75t73.5 -140q0 -52 -35.5 -85t-89.5 -33q-39 0 -62.5 21t-23.5 56v31q0 76 -70 105v-709q77 9 127 46t96 118l125 -47q-46 -88 -82 -131q-99 -117 -266 -138v-186h-96v186q-201 22 -314.5 148.5 t-113.5 329.5zM389 705q0 -137 43.5 -232t118.5 -123v697q-76 -25 -119 -116t-43 -226z" />
<glyph unicode="&#xa3;" horiz-adv-x="1058" d="M-51 115q0 66 61 113.5t146 47.5q68 0 166 -45q30 99 30 291q0 29 -2 56h-219v104h219q6 178 30 290.5t77 211.5q53 97 143.5 153t196.5 56q113 0 188.5 -67t75.5 -167q0 -86 -62.5 -143.5t-154.5 -57.5q-20 0 -49 5q82 76 82 194q0 66 -34 107t-89 41q-69 0 -109.5 -57 t-40.5 -152v-19l10 -192v-51q0 -80 -8 -152h234v-104h-242q-12 -247 -129 -394q85 -39 197 -39q123 0 200.5 48t77.5 124q0 15 -2 25l55 12q11 -40 11 -71q0 -148 -84 -243t-215 -95q-136 0 -316 143q-93 -127 -239 -127q-88 0 -146.5 44t-58.5 110zM70 117q0 -32 26 -54 t64 -22q88 0 135 109q-55 40 -121 40q-46 0 -75 -20.5t-29 -52.5z" />
<glyph unicode="&#xa4;" horiz-adv-x="1366" d="M76 1243l112 113l203 -203q76 52 144.5 75t148.5 23t146.5 -22t140.5 -74l203 201l110 -113l-199 -201q53 -78 76 -145t23 -143t-23 -143t-74 -142l203 -203l-112 -112l-203 202q-138 -100 -291 -100q-77 0 -145 23t-146 75l-203 -200l-110 112l201 201q-99 135 -99 289 q0 77 23.5 144t75.5 140zM371 754q0 -129 91 -221.5t220 -92.5q130 0 221.5 91.5t91.5 222.5q0 130 -91 221.5t-220 93.5q-130 0 -221.5 -92t-91.5 -223z" />
<glyph unicode="&#xa5;" horiz-adv-x="1058" d="M-14 1229v98h493v-98h-12l-33 -2q-53 0 -53 -53q0 -30 39 -109l153 -326l166 348l17 31q14 32 14 53q0 50 -84 56h-33q-2 0 -6.5 1t-7.5 1v98h434v-98q-16 -4 -18 -4q-47 -9 -56 -13q-15 -2 -43 -18q-25 -18 -40 -37.5t-39 -69.5l-64 -133h162v-106h-211l-113 -234v-16 h215v-104h-215v-250q0 -57 4 -78.5t17 -34.5q22 -31 104 -31h37v-100h-584v100h39q83 0 107 31q12 14 16 35.5t4 77.5v250h-237v104h237l-129 250h-211v106h158l-70 133q-34 68 -59 105q-4 6 -9 10.5t-9 8t-11 6t-10 4t-13 3t-12.5 2t-16 2t-17.5 1.5z" />
<glyph unicode="&#xa7;" horiz-adv-x="1058" d="M115 0q0 49 32.5 82t79.5 33q44 0 72.5 -28t32.5 -77l4 -41q6 -57 59 -93t131 -36q69 0 118.5 42t49.5 100q0 37 -21.5 66t-78.5 69l-145 98q-100 68 -146.5 105t-83.5 77q-84 90 -84 215q0 157 154 308q-51 54 -72.5 100t-21.5 100q0 128 102.5 212.5t257.5 84.5 q145 0 247.5 -68t102.5 -163q0 -46 -31 -76.5t-77 -30.5q-32 0 -55.5 20.5t-32.5 55.5l-11 35q-31 119 -147 119q-65 0 -110.5 -35t-45.5 -86q0 -69 74 -127q45 -36 164 -119l80 -53q211 -145 211 -320q0 -142 -131 -297q106 -100 106 -231q0 -145 -107.5 -234.5 t-279.5 -89.5q-166 0 -281.5 82.5t-115.5 200.5zM330 694q0 -60 51 -114q28 -31 94 -83.5t123 -90.5l96 -62q45 68 45 150q0 44 -28 84t-93 90q-7 5 -237 176q-51 -81 -51 -150z" />
<glyph unicode="&#xa8;" d="M147 1186q0 57 39.5 97t96.5 40t97 -40t40 -97t-40 -96t-97 -39t-96.5 39t-39.5 96zM604 1186q0 57 40 97t97 40q56 0 96 -40t40 -97t-40 -96t-96 -39q-57 0 -97 39t-40 96z" />
<glyph unicode="&#xa9;" horiz-adv-x="1603" d="M68 682q0 200 98.5 369t267.5 267.5t369 98.5t368.5 -98.5t266.5 -267.5t98 -369q0 -198 -98 -367t-267 -267.5t-368 -98.5q-200 0 -369 98.5t-267.5 267.5t-98.5 367zM188 682q0 -127 48.5 -243.5t131 -200.5t196.5 -133.5t239 -49.5q166 0 307 84t223 228.5t82 314.5 t-82 315t-223 229.5t-307 84.5q-125 0 -239 -50t-196.5 -134.5t-131 -200.5t-48.5 -244zM375 674q0 195 132 321.5t335 126.5q149 0 264 -75l27 57h47q0 -85 8 -191l8 -108l2 -10h-65q-37 123 -109.5 186t-175.5 63q-127 0 -200 -98t-73 -270q0 -166 72 -259t201 -93 q98 0 180.5 51.5t132.5 142.5l64 -45q-56 -110 -159.5 -170.5t-238.5 -60.5q-201 0 -326.5 120.5t-125.5 311.5z" />
<glyph unicode="&#xaa;" horiz-adv-x="706" d="M59 950q0 136 166 176l78 17l74 22l12 4v70q0 76 -78 76q-66 0 -75 -66l-5 -20q-9 -47 -67 -47q-32 0 -54 17.5t-22 43.5q0 59 71 103.5t165 44.5q61 0 117 -21t81 -57q18 -21 23.5 -46t5.5 -85v-232q0 -29 7.5 -40t27.5 -11q22 0 31 15t14 55h59q-1 -79 -46 -124.5 t-122 -45.5q-98 0 -133 71q-92 -71 -186 -71q-64 0 -104 41.5t-40 109.5zM74 608v68h602v-68h-602zM225 975q0 -33 19 -53.5t49 -20.5q31 0 96 43v148l-90 -27q-74 -22 -74 -90z" />
<glyph unicode="&#xab;" horiz-adv-x="1062" d="M76 471l321 375q35 41 66 41q26 0 42.5 -14.5t16.5 -36.5q0 -16 -12 -43l-148 -322l146 -311q12 -30 12 -51q0 -22 -17 -38t-40 -16q-30 0 -53 29zM528 471l320 375q38 41 67 41q26 0 43 -14.5t17 -36.5q0 -16 -12 -43l-148 -322l143 -311q15 -30 15 -49 q0 -23 -17.5 -39.5t-42.5 -16.5q-28 0 -53 29z" />
<glyph unicode="&#xac;" d="M68 362v185h888v-547h-204v362h-684z" />
<glyph unicode="&#xad;" horiz-adv-x="460" d="M0 391v146h461v-146h-461z" />
<glyph unicode="&#xae;" d="M102 1153q0 170 120 290t290 120t290 -120t120 -290q0 -169 -120.5 -289.5t-289.5 -120.5t-289.5 120.5t-120.5 289.5zM156 1153q0 -148 104 -253t252 -105t252 104.5t104 253.5t-104 254.5t-252 105.5t-252 -105.5t-104 -254.5zM301 942v33h14q29 0 37 8t8 37v268 q0 29 -8 37t-37 8h-14v33h252q51 0 80 -28t29 -78q0 -106 -123 -115q44 -7 63 -21q25 -17 80 -102q25 -36 33.5 -43.5t29.5 -7.5h3v-29h-113q-6 3 -13 10t-11 12t-11 15t-8 12t-31 51q-36 58 -54 75.5t-42 17.5h-12v-115q0 -29 8 -37t39 -8h12v-33h-211zM453 1167h34 q84 0 84 86q0 80 -77 80h-41v-166z" />
<glyph unicode="&#xaf;" d="M154 1143v108h716v-108h-716z" />
<glyph unicode="&#xb0;" d="M209 1065q0 123 88.5 210t214.5 87t214.5 -87t88.5 -210t-89 -210t-214 -87q-126 0 -214.5 87t-88.5 210zM336 1065q0 -71 51.5 -121.5t124.5 -50.5q72 0 124 51t52 121q0 72 -52 123t-124 51q-73 0 -124.5 -51t-51.5 -123z" />
<glyph unicode="&#xb1;" d="M68 121v188h888v-188h-888zM68 719v188h342v334h204v-334h342v-188h-342v-334h-204v334h-342z" />
<glyph unicode="&#xb4;" d="M387 1061q0 20 29 49l194 213h285q43 0 43 -33q0 -20 -29 -35l-440 -221q-28 -12 -39 -12q-19 0 -31 11t-12 28z" />
<glyph unicode="&#xb5;" d="M76 -348v1329h205v-537q0 -81 7.5 -122.5t28.5 -77.5q30 -48 82 -76.5t113 -28.5t111 30.5t77 78.5q26 41 35.5 85.5t9.5 123.5v524h203v-981h-203v145q-36 -74 -73 -108q-68 -62 -166 -62q-93 0 -160 58q-30 24 -65 82v-463h-205z" />
<glyph unicode="&#xb6;" horiz-adv-x="1271" d="M49 1001q0 155 98 256q115 109 363 109h616v-160h-135v-1401h-176v1401h-192v-1401h-177v846q-6 0 -15 -1t-11 -1q-164 0 -267.5 97.5t-103.5 254.5z" />
<glyph unicode="&#xb7;" horiz-adv-x="425" d="M0 705q0 87 62.5 148.5t150.5 61.5t150.5 -61.5t62.5 -148.5q0 -88 -62.5 -150.5t-150.5 -62.5t-150.5 62.5t-62.5 150.5z" />
<glyph unicode="&#xb8;" d="M315 -412l41 80q66 -26 107 -26q40 0 64 20.5t24 54.5q0 35 -27 57t-96 42l45 184h98l-22 -102q160 -34 160 -166q0 -82 -61.5 -135.5t-153.5 -53.5q-44 0 -81 9t-98 36z" />
<glyph unicode="&#xba;" horiz-adv-x="706" d="M47 1100q0 129 84 206.5t221 77.5q138 0 221.5 -77.5t83.5 -206.5q0 -130 -86.5 -215.5t-218.5 -85.5t-218.5 85.5t-86.5 215.5zM61 608v68h584v-68h-584zM227 1096q0 -115 30.5 -168.5t96.5 -53.5q65 0 95 53t30 167q0 213 -125 213q-127 0 -127 -211z" />
<glyph unicode="&#xbb;" horiz-adv-x="1062" d="M88 106q0 18 10 41l148 322l-144 313q-12 27 -12 49q0 23 16 39.5t41 16.5q17 0 28 -6t26 -25l334 -387l-322 -373q-33 -41 -68 -41q-25 0 -41 14.5t-16 36.5zM541 106q0 18 10 41l147 322l-143 313q-14 32 -14 49q0 23 17.5 39.5t41.5 16.5q17 0 27.5 -6t25.5 -25 l334 -387l-321 -373q-33 -41 -68 -41q-26 0 -41.5 14.5t-15.5 36.5z" />
<glyph unicode="&#xbf;" horiz-adv-x="970" d="M123 -152q0 150 71.5 242t188.5 92q39 0 63.5 -6t65.5 -26v221h106v-355h-90q-6 22 -26 36t-45 14q-107 0 -107 -236q0 -121 35 -179.5t109 -58.5q43 0 67.5 18t36.5 58q21 78 86 78q40 0 69 -26.5t29 -63.5q0 -78 -86.5 -129t-218.5 -51q-169 0 -261.5 97.5t-92.5 274.5 zM408 762q0 69 47.5 117.5t115.5 48.5q69 0 117.5 -48.5t48.5 -117.5q0 -68 -48.5 -116t-117.5 -48q-67 0 -115 48t-48 116z" />
<glyph unicode="&#xc0;" horiz-adv-x="1531" d="M20 0v102h17q82 0 124.5 31.5t76.5 114.5l456 1138h131l465 -1138q32 -79 43 -95q30 -45 100 -50q13 -1 27 -1h45v-102h-661v102h92q34 0 54 16t20 42q0 17 -15 47l-98 248h-418l-94 -248q-2 -2 -7 -24.5t-5 -30.5q0 -11 6.5 -24t15.5 -17q18 -9 58 -9h92v-102h-525z M270 1686q0 17 12.5 24.5t43.5 7.5q7 0 39.5 -1t56.5 -1q61 -4 106 -4q47 0 80 2h25l190 -155q29 -20 29 -41q0 -15 -9 -24t-24 -9q-12 0 -39 8l-461 139q-49 15 -49 54zM516 555h338l-166 428z" />
<glyph unicode="&#xc1;" horiz-adv-x="1531" d="M20 0v102h17q82 0 124.5 31.5t76.5 114.5l456 1138h131l465 -1138q32 -79 43 -95q30 -45 100 -50q13 -1 27 -1h45v-102h-661v102h92q34 0 54 16t20 42q0 17 -15 47l-98 248h-418l-94 -248q-2 -2 -7 -24.5t-5 -30.5q0 -11 6.5 -24t15.5 -17q18 -9 58 -9h92v-102h-525z M516 555h338l-166 428zM680 1516q0 20 29 43l190 155h25q33 -2 80 -2q43 0 106 4q24 0 56.5 1t39.5 1q31 0 43.5 -7.5t12.5 -24.5q0 -39 -50 -54l-460 -139q-27 -8 -41 -8q-13 0 -22 8.5t-9 22.5z" />
<glyph unicode="&#xc2;" horiz-adv-x="1531" d="M20 0v102h17q82 0 124.5 31.5t76.5 114.5l456 1138h131l465 -1138q32 -79 43 -95q30 -45 100 -50q13 -1 27 -1h45v-102h-661v102h92q34 0 54 16t20 42q0 17 -15 47l-98 248h-418l-94 -248q-2 -2 -7 -24.5t-5 -30.5q0 -11 6.5 -24t15.5 -17q18 -9 58 -9h92v-102h-525z M426 1528q0 18 25 31l309 170l309 -170q23 -11 23 -31q0 -19 -11 -31t-28 -12q-11 0 -31 4l-262 70l-262 -70q-24 -4 -33 -4q-17 0 -28 12t-11 31zM516 555h338l-166 428z" />
<glyph unicode="&#xc3;" horiz-adv-x="1531" d="M20 0v102h17q82 0 124.5 31.5t76.5 114.5l456 1138h131l465 -1138q32 -79 43 -95q30 -45 100 -50q13 -1 27 -1h45v-102h-661v102h92q34 0 54 16t20 42q0 17 -15 47l-98 248h-418l-94 -248q-2 -2 -7 -24.5t-5 -30.5q0 -11 6.5 -24t15.5 -17q18 -9 58 -9h92v-102h-525z M410 1509q110 203 245 203q38 0 145.5 -29.5t135.5 -29.5q54 0 121 67l53 -39q-39 -61 -57.5 -84t-48.5 -47q-72 -57 -144 -57q-20 0 -127 25q-104 26 -145 26q-33 0 -66.5 -20t-50.5 -51zM516 555h338l-166 428z" />
<glyph unicode="&#xc4;" horiz-adv-x="1531" d="M20 0v102h17q82 0 124.5 31.5t76.5 114.5l456 1138h131l465 -1138q32 -79 43 -95q30 -45 100 -50q13 -1 27 -1h45v-102h-661v102h92q34 0 54 16t20 42q0 17 -15 47l-98 248h-418l-94 -248q-2 -2 -7 -24.5t-5 -30.5q0 -11 6.5 -24t15.5 -17q18 -9 58 -9h92v-102h-525z M393 1591q0 56 40 95.5t97 39.5t97.5 -39.5t40.5 -95.5q0 -57 -40.5 -97t-97.5 -40t-97 40t-40 97zM516 555h338l-166 428zM852 1591q0 55 40 95t95 40q57 0 97 -39.5t40 -95.5q0 -57 -40 -97t-97 -40q-56 0 -95.5 40t-39.5 97z" />
<glyph unicode="&#xc5;" horiz-adv-x="1531" d="M20 0v102h17q82 0 124.5 31.5t76.5 114.5l456 1138h131l465 -1138q32 -79 43 -95q30 -45 100 -50q13 -1 27 -1h45v-102h-661v102h92q34 0 54 16t20 42q0 17 -15 47l-98 248h-418l-94 -248q-2 -2 -7 -24.5t-5 -30.5q0 -11 6.5 -24t15.5 -17q18 -9 58 -9h92v-102h-525z M516 555h338l-166 428zM571 1626q0 77 55.5 131.5t133.5 54.5q76 0 131 -56t55 -134q0 -76 -54.5 -130t-131.5 -54q-78 0 -133.5 55t-55.5 133zM680 1626q0 -34 23 -57t57 -23q33 0 56.5 23.5t23.5 56.5q0 32 -24 56t-56 24q-33 0 -56.5 -23.5t-23.5 -56.5z" />
<glyph unicode="&#xc6;" horiz-adv-x="1949" d="M20 0v102q72 0 117 29q27 21 48.5 52.5t64.5 117.5l412 801q38 76 38 98q0 64 -120 64h-64v102h1278l21 -360h-101q-22 95 -53 155q-33 65 -94 86q-47 15 -140 15q-43 2 -77 2h-154v-521h100q76 3 113 37q26 23 36 54.5t15 97.5h103v-510h-103q-2 68 -9.5 106t-30.5 65 t-62.5 36.5t-106.5 9.5h-55v-406q0 -84 35 -106q12 -9 32.5 -14.5t56 -8t91.5 -2.5h82q88 0 134 15.5t83 56.5q34 38 49 74q24 51 56 174h100l-29 -422h-1192v102h58q89 0 125 31q14 15 18 38t4 81v387h-319l-158 -326l-21 -47q-26 -49 -26 -82q0 -39 25.5 -57.5t86.5 -22.5 l29 -2v-102h-496zM637 743h262v521z" />
<glyph unicode="&#xc7;" horiz-adv-x="1515" d="M109 668q0 161 57 300.5t156.5 238t240 154.5t303.5 56q242 0 428 -129l41 96h76l2 -28q0 -68 4 -123q1 -57 8 -164l15 -182l2 -19h-107q-24 89 -55 152q-65 128 -171 198t-235 70q-204 0 -323 -164.5t-119 -447.5q0 -278 118 -434t327 -156q159 0 293.5 86.5 t211.5 237.5l103 -76q-88 -180 -245 -278.5t-368 -106.5l-14 -64q91 -19 134.5 -64t43.5 -120q0 -89 -68 -149t-171 -60q-48 0 -89.5 10.5t-109.5 40.5l47 88q66 -30 117 -30q44 0 71 24t27 62t-30 62t-105 46l37 156l-6 2q-293 29 -470 224.5t-177 490.5z" />
<glyph unicode="&#xc8;" horiz-adv-x="1294" d="M55 0v102h45q87 0 123 31q15 15 20 38t5 81v862q0 58 -5 80.5t-20 36.5q-33 33 -123 33h-45v102h1092l16 -354h-98q-9 91 -43 147q-17 35 -47 62q-29 25 -60.5 34t-91.5 9h-276v-476h125q71 0 104 43.5t33 137.5h111v-498h-111v25q0 99 -39.5 138.5t-138.5 39.5h-84v-453 q1 -44 4.5 -58.5t17.5 -31.5q23 -29 86 -29h213q85 0 131.5 20t81.5 71q61 88 82 235h97l-23 -428h-1182zM160 1686q0 17 12.5 24.5t42.5 7.5q9 0 41.5 -1t56.5 -1q59 -4 105 -4q47 0 80 2h24l191 -155q30 -21 30 -41q0 -15 -9.5 -24t-24.5 -9q-12 0 -39 8l-461 139 q-49 15 -49 54z" />
<glyph unicode="&#xc9;" horiz-adv-x="1294" d="M55 0v102h45q87 0 123 31q15 15 20 38t5 81v862q0 58 -5 80.5t-20 36.5q-33 33 -123 33h-45v102h1092l16 -354h-98q-9 91 -43 147q-17 35 -47 62q-29 25 -60.5 34t-91.5 9h-276v-476h125q71 0 104 43.5t33 137.5h111v-498h-111v25q0 99 -39.5 138.5t-138.5 39.5h-84v-453 q1 -44 4.5 -58.5t17.5 -31.5q23 -29 86 -29h213q85 0 131.5 20t81.5 71q61 88 82 235h97l-23 -428h-1182zM569 1516q0 20 29 43l193 155h22q33 -2 80 -2q43 0 106 4q24 0 57 1t40 1q31 0 44 -7.5t13 -24.5q0 -39 -51 -54l-461 -139q-27 -8 -39 -8q-15 0 -24 8.5t-9 22.5z " />
<glyph unicode="&#xca;" horiz-adv-x="1294" d="M55 0v102h45q87 0 123 31q15 15 20 38t5 81v862q0 58 -5 80.5t-20 36.5q-33 33 -123 33h-45v102h1092l16 -354h-98q-9 91 -43 147q-17 35 -47 62q-29 25 -60.5 34t-91.5 9h-276v-476h125q71 0 104 43.5t33 137.5h111v-498h-111v25q0 99 -39.5 138.5t-138.5 39.5h-84v-453 q1 -44 4.5 -58.5t17.5 -31.5q23 -29 86 -29h213q85 0 131.5 20t81.5 71q61 88 82 235h97l-23 -428h-1182zM324 1528q0 20 22 31l309 170l310 -170q24 -12 24 -31t-11 -31t-28 -12q-8 0 -32 4l-263 70l-262 -70q-20 -4 -31 -4q-17 0 -27.5 12t-10.5 31z" />
<glyph unicode="&#xcb;" horiz-adv-x="1294" d="M55 0v102h45q87 0 123 31q15 15 20 38t5 81v862q0 58 -5 80.5t-20 36.5q-33 33 -123 33h-45v102h1092l16 -354h-98q-9 91 -43 147q-17 35 -47 62q-29 25 -60.5 34t-91.5 9h-276v-476h125q71 0 104 43.5t33 137.5h111v-498h-111v25q0 99 -39.5 138.5t-138.5 39.5h-84v-453 q1 -44 4.5 -58.5t17.5 -31.5q23 -29 86 -29h213q85 0 131.5 20t81.5 71q61 88 82 235h97l-23 -428h-1182zM291 1591q0 56 40 95.5t97 39.5q56 0 95.5 -40t39.5 -95q0 -57 -39.5 -97t-95.5 -40q-57 0 -97 40t-40 97zM748 1591q0 56 40 95.5t97 39.5t97 -39.5t40 -95.5 q0 -57 -40 -97t-97 -40t-97 40t-40 97z" />
<glyph unicode="&#xcc;" horiz-adv-x="790" d="M8 1686q0 17 12.5 24.5t42.5 7.5q9 0 42 -1t57 -1q59 -4 104 -4q47 0 80 2h25l190 -155q31 -22 31 -41q0 -15 -10 -24t-25 -9q-12 0 -39 8l-461 139q-49 15 -49 54zM55 0v102h45q87 0 123 31q15 15 20 38t5 81v862q0 58 -5 80.5t-20 36.5q-33 33 -123 33h-45v102h680 v-102h-45q-90 0 -123 -33q-15 -13 -19.5 -36t-4.5 -81v-862q0 -59 4.5 -81.5t19.5 -37.5q36 -31 123 -31h45v-102h-680z" />
<glyph unicode="&#xcd;" horiz-adv-x="790" d="M55 0v102h45q87 0 123 31q15 15 20 38t5 81v862q0 58 -5 80.5t-20 36.5q-33 33 -123 33h-45v102h680v-102h-45q-90 0 -123 -33q-15 -13 -19.5 -36t-4.5 -81v-862q0 -59 4.5 -81.5t19.5 -37.5q36 -31 123 -31h45v-102h-680zM199 1516q0 21 28 43l193 155h24q33 -2 80 -2 q44 0 105 4q24 0 56.5 1t41.5 1q55 0 55 -32q0 -39 -51 -54l-461 -139q-27 -8 -39 -8q-15 0 -23.5 8.5t-8.5 22.5z" />
<glyph unicode="&#xce;" horiz-adv-x="790" d="M55 0v102h45q87 0 123 31q15 15 20 38t5 81v862q0 58 -5 80.5t-20 36.5q-33 33 -123 33h-45v102h680v-102h-45q-90 0 -123 -33q-15 -13 -19.5 -36t-4.5 -81v-862q0 -59 4.5 -81.5t19.5 -37.5q36 -31 123 -31h45v-102h-680zM63 1528q0 20 23 31l309 170l310 -170 q22 -11 22 -31q0 -19 -10.5 -31t-28.5 -12q-11 0 -31 4l-262 70l-262 -70q-24 -4 -31 -4q-18 0 -28.5 12t-10.5 31z" />
<glyph unicode="&#xcf;" horiz-adv-x="790" d="M31 1591q0 56 39 95.5t96 39.5t97 -39.5t40 -95.5q0 -57 -40 -97t-97 -40t-96 40t-39 97zM55 0v102h45q87 0 123 31q15 15 20 38t5 81v862q0 58 -5 80.5t-20 36.5q-33 33 -123 33h-45v102h680v-102h-45q-90 0 -123 -33q-15 -13 -19.5 -36t-4.5 -81v-862q0 -59 4.5 -81.5 t19.5 -37.5q36 -31 123 -31h45v-102h-680zM487 1591q0 56 40.5 95.5t97.5 39.5q55 0 95 -40t40 -95q0 -57 -39.5 -97t-95.5 -40q-57 0 -97.5 40t-40.5 97z" />
<glyph unicode="&#xd1;" horiz-adv-x="1593" d="M55 0v102h41q89 0 125 31q14 15 18.5 38t4.5 81v862q0 56 -4.5 79.5t-18.5 37.5q-33 33 -125 33h-41v102h506l658 -977v725q0 56 -4.5 79.5t-18.5 37.5q-33 33 -125 33h-51v102h545v-102h-39q-90 0 -123 -33q-15 -14 -20 -37t-5 -80v-1114h-239l-736 1092v-840 q0 -58 5 -81t20 -38q36 -31 125 -31h45v-102h-543zM446 1509q110 203 248 203q37 0 143.5 -29.5t135.5 -29.5q57 0 121 67l53 -39q-38 -60 -57 -83t-50 -48q-72 -57 -143 -57q-11 0 -21.5 1.5t-18.5 3t-35.5 8.5t-51.5 12q-104 26 -143 26q-34 0 -67 -20t-52 -51z" />
<glyph unicode="&#xd2;" horiz-adv-x="1718" d="M109 674q0 157 58 295t158 236t240 155t299 57q213 0 383.5 -92t266.5 -256t96 -369q0 -161 -57 -301t-156.5 -238.5t-239.5 -155t-301 -56.5q-160 0 -298.5 54.5t-237 150t-155 230.5t-56.5 290zM362 1686q0 32 56 32q9 0 41.5 -1t56.5 -1q61 -4 105 -4q46 0 79 2h25 l193 -155q28 -22 28 -41q0 -15 -9 -24t-24 -9q-12 0 -39 8l-460 139q-52 16 -52 54zM430 696q0 -302 110.5 -461t321.5 -159q154 0 256 82q80 66 125 209t45 329q0 236 -82 400q-46 94 -136.5 146t-207.5 52q-209 0 -320.5 -154.5t-111.5 -443.5z" />
<glyph unicode="&#xd3;" horiz-adv-x="1718" d="M109 674q0 157 58 295t158 236t240 155t299 57q213 0 383.5 -92t266.5 -256t96 -369q0 -161 -57 -301t-156.5 -238.5t-239.5 -155t-301 -56.5q-160 0 -298.5 54.5t-237 150t-155 230.5t-56.5 290zM430 696q0 -302 110.5 -461t321.5 -159q154 0 256 82q80 66 125 209 t45 329q0 236 -82 400q-46 94 -136.5 146t-207.5 52q-209 0 -320.5 -154.5t-111.5 -443.5zM772 1516q0 20 29 43l192 155h25q33 -2 80 -2q43 0 104 4q24 0 56.5 1t41.5 1q56 0 56 -32q0 -39 -51 -54l-461 -139q-27 -8 -39 -8q-15 0 -24 8.5t-9 22.5z" />
<glyph unicode="&#xd4;" horiz-adv-x="1718" d="M109 674q0 157 58 295t158 236t240 155t299 57q213 0 383.5 -92t266.5 -256t96 -369q0 -161 -57 -301t-156.5 -238.5t-239.5 -155t-301 -56.5q-160 0 -298.5 54.5t-237 150t-155 230.5t-56.5 290zM430 696q0 -302 110.5 -461t321.5 -159q154 0 256 82q80 66 125 209 t45 329q0 236 -82 400q-46 94 -136.5 146t-207.5 52q-209 0 -320.5 -154.5t-111.5 -443.5zM526 1528q0 18 25 31l309 170l309 -170q23 -11 23 -31q0 -19 -11 -31t-28 -12q-11 0 -31 4l-262 70l-262 -70q-24 -4 -33 -4q-17 0 -28 12t-11 31z" />
<glyph unicode="&#xd5;" horiz-adv-x="1718" d="M109 674q0 157 58 295t158 236t240 155t299 57q213 0 383.5 -92t266.5 -256t96 -369q0 -161 -57 -301t-156.5 -238.5t-239.5 -155t-301 -56.5q-160 0 -298.5 54.5t-237 150t-155 230.5t-56.5 290zM430 696q0 -302 110.5 -461t321.5 -159q154 0 256 82q80 66 125 209 t45 329q0 236 -82 400q-46 94 -136.5 146t-207.5 52q-209 0 -320.5 -154.5t-111.5 -443.5zM510 1509q110 203 246 203q37 0 144 -29.5t134 -29.5q56 0 123 67l53 -39q-39 -61 -57.5 -84t-48.5 -47q-72 -57 -143 -57q-20 0 -130 25q-104 26 -143 26q-32 0 -66 -20t-53 -51z " />
<glyph unicode="&#xd6;" horiz-adv-x="1718" d="M109 674q0 157 58 295t158 236t240 155t299 57q213 0 383.5 -92t266.5 -256t96 -369q0 -161 -57 -301t-156.5 -238.5t-239.5 -155t-301 -56.5q-160 0 -298.5 54.5t-237 150t-155 230.5t-56.5 290zM430 696q0 -302 110.5 -461t321.5 -159q154 0 256 82q80 66 125 209 t45 329q0 236 -82 400q-46 94 -136.5 146t-207.5 52q-209 0 -320.5 -154.5t-111.5 -443.5zM494 1591q0 56 40 95.5t97 39.5t97 -39.5t40 -95.5q0 -57 -40 -97t-97 -40t-97 40t-40 97zM952 1591q0 56 39 95.5t96 39.5t97.5 -39.5t40.5 -95.5q0 -57 -40.5 -97t-97.5 -40 t-96 40t-39 97z" />
<glyph unicode="&#xd8;" horiz-adv-x="1718" d="M109 676q0 156 58 293.5t158 235.5t240 155t299 57q231 0 404 -104l139 178l84 -68l-135 -172l65 -63q89 -83 139 -213t50 -279q0 -213 -97 -384t-269 -267t-386 -96q-248 0 -420 114l-127 -159l-84 65l123 160l-22 21q-11 11 -26 27t-19 20q-85 91 -129.5 214.5 t-44.5 264.5zM430 696q0 -240 72 -393l653 871q-105 120 -297 120q-206 0 -317 -155.5t-111 -442.5zM563 205q111 -129 299 -129q154 0 256 82q80 66 125 209.5t45 330.5q0 212 -71 377z" />
<glyph unicode="&#xd9;" horiz-adv-x="1597" d="M55 1264v102h652v-102h-43q-89 0 -125 -33q-14 -14 -18.5 -37.5t-4.5 -79.5v-637q0 -112 13.5 -163t54.5 -101q91 -111 278 -111q88 0 162.5 28t118.5 79q48 56 66 130.5t18 219.5v555q0 58 -5 80.5t-20 36.5q-33 33 -125 33h-45v102h520v-102h-20q-90 0 -123 -33 q-15 -14 -20 -36.5t-5 -80.5v-637q0 -150 -35 -240t-124 -163q-151 -125 -416 -125q-293 0 -441.5 133t-148.5 395v637q0 58 -4 80.5t-18 36.5q-33 33 -125 33h-17zM301 1686q0 32 55 32q9 0 42 -1t57 -1q61 -4 106 -4q47 0 80 2h23l192 -155q29 -23 29 -41q0 -15 -9 -24 t-24 -9q-12 0 -39 8l-461 139q-51 15 -51 54z" />
<glyph unicode="&#xda;" horiz-adv-x="1597" d="M55 1264v102h652v-102h-43q-89 0 -125 -33q-14 -14 -18.5 -37.5t-4.5 -79.5v-637q0 -112 13.5 -163t54.5 -101q91 -111 278 -111q88 0 162.5 28t118.5 79q48 56 66 130.5t18 219.5v555q0 58 -5 80.5t-20 36.5q-33 33 -125 33h-45v102h520v-102h-20q-90 0 -123 -33 q-15 -14 -20 -36.5t-5 -80.5v-637q0 -150 -35 -240t-124 -163q-151 -125 -416 -125q-293 0 -441.5 133t-148.5 395v637q0 58 -4 80.5t-18 36.5q-33 33 -125 33h-17zM752 1516q0 19 30 43l191 155h24q33 -2 80 -2q44 0 105 4q24 0 56.5 1t41.5 1q30 0 42.5 -7.5t12.5 -24.5 q0 -39 -49 -54l-461 -139q-27 -8 -41 -8t-23 9t-9 22z" />
<glyph unicode="&#xdb;" horiz-adv-x="1597" d="M55 1264v102h652v-102h-43q-89 0 -125 -33q-14 -14 -18.5 -37.5t-4.5 -79.5v-637q0 -112 13.5 -163t54.5 -101q91 -111 278 -111q88 0 162.5 28t118.5 79q48 56 66 130.5t18 219.5v555q0 58 -5 80.5t-20 36.5q-33 33 -125 33h-45v102h520v-102h-20q-90 0 -123 -33 q-15 -14 -20 -36.5t-5 -80.5v-637q0 -150 -35 -240t-124 -163q-151 -125 -416 -125q-293 0 -441.5 133t-148.5 395v637q0 58 -4 80.5t-18 36.5q-33 33 -125 33h-17zM506 1528q0 19 24 31l310 170l309 -170q22 -11 22 -31q0 -19 -10.5 -31t-27.5 -12q-11 0 -31 4l-262 70 l-262 -70q-24 -4 -33 -4q-17 0 -28 12t-11 31z" />
<glyph unicode="&#xdc;" horiz-adv-x="1597" d="M55 1264v102h652v-102h-43q-89 0 -125 -33q-14 -14 -18.5 -37.5t-4.5 -79.5v-637q0 -112 13.5 -163t54.5 -101q91 -111 278 -111q88 0 162.5 28t118.5 79q48 56 66 130.5t18 219.5v555q0 58 -5 80.5t-20 36.5q-33 33 -125 33h-45v102h520v-102h-20q-90 0 -123 -33 q-15 -14 -20 -36.5t-5 -80.5v-637q0 -150 -35 -240t-124 -163q-151 -125 -416 -125q-293 0 -441.5 133t-148.5 395v637q0 58 -4 80.5t-18 36.5q-33 33 -125 33h-17zM473 1591q0 56 40 95.5t97 39.5t97.5 -39.5t40.5 -95.5q0 -57 -40.5 -97t-97.5 -40t-97 40t-40 97z M932 1591q0 55 40 95t95 40q57 0 97 -39.5t40 -95.5q0 -57 -40 -97t-97 -40q-56 0 -95.5 40t-39.5 97z" />
<glyph unicode="&#xdf;" horiz-adv-x="1191" d="M41 0v102h51q43 0 61.5 10.5t18.5 41.5q2 12 2 39l2 53v739q0 189 118.5 305.5t313.5 116.5q180 0 295 -91.5t115 -234.5q0 -231 -258 -284q166 -15 258 -120t92 -278q0 -185 -99 -304.5t-253 -119.5q-91 0 -154 46t-63 112q0 40 27.5 65t70.5 25q86 0 86 -98 q10 -31 37 -31q12 0 24.5 9t18.5 24q13 32 23 99.5t10 129.5q0 132 -41 238q-28 69 -81 99t-145 30q-26 0 -53 -2v137h37q128 3 179.5 50.5t51.5 162.5q0 107 -47.5 165t-136.5 58q-77 0 -120 -41.5t-44 -119.5l-2 -50v-890q0 -35 2 -39q0 -32 16.5 -41t63.5 -11v-102h-477z " />
<glyph unicode="&#xe0;" horiz-adv-x="1058" d="M72 217q0 114 64 184.5t198 102.5l123 28l118 35l17 6v115q0 125 -123 125q-103 0 -121 -106l-6 -35q-6 -38 -34 -59t-72 -21q-51 0 -86 29.5t-35 70.5q0 98 112 172t262 74q97 0 186 -35t130 -94q28 -35 36.5 -77t8.5 -140v-377q0 -47 12 -66.5t43 -19.5q34 0 50 26 t20 91h96q-1 -132 -72 -206.5t-194 -74.5q-157 0 -213 121q-142 -121 -295 -121q-101 0 -163 69.5t-62 182.5zM82 1290q0 31 43 31h287l202 -215q23 -21 23 -41q0 -19 -11 -31t-30 -12q-9 0 -29 10l-450 217q-2 1 -5 3t-5 3t-5 3.5t-4.5 3.5t-4 3.5l-4 4t-3 4t-2.5 5 t-1.5 5.5t-0.5 6zM332 256q0 -54 29.5 -87.5t76.5 -33.5q63 0 154 68v243l-141 -43q-56 -17 -87.5 -56t-31.5 -91z" />
<glyph unicode="&#xe1;" horiz-adv-x="1058" d="M72 217q0 114 64 184.5t198 102.5l123 28l118 35l17 6v115q0 125 -123 125q-103 0 -121 -106l-6 -35q-6 -38 -34 -59t-72 -21q-51 0 -86 29.5t-35 70.5q0 98 112 172t262 74q97 0 186 -35t130 -94q28 -35 36.5 -77t8.5 -140v-377q0 -47 12 -66.5t43 -19.5q34 0 50 26 t20 91h96q-1 -132 -72 -206.5t-194 -74.5q-157 0 -213 121q-142 -121 -295 -121q-101 0 -163 69.5t-62 182.5zM332 256q0 -54 29.5 -87.5t76.5 -33.5q63 0 154 68v243l-141 -43q-56 -17 -87.5 -56t-31.5 -91zM383 1061q0 20 29 49l196 213h283q45 0 45 -33q0 -20 -29 -35 l-442 -221q-24 -12 -39 -12q-18 0 -30.5 11t-12.5 28z" />
<glyph unicode="&#xe2;" horiz-adv-x="1058" d="M72 217q0 114 64 184.5t198 102.5l123 28l118 35l17 6v115q0 125 -123 125q-103 0 -121 -106l-6 -35q-6 -38 -34 -59t-72 -21q-51 0 -86 29.5t-35 70.5q0 98 112 172t262 74q97 0 186 -35t130 -94q28 -35 36.5 -77t8.5 -140v-377q0 -47 12 -66.5t43 -19.5q34 0 50 26 t20 91h96q-1 -132 -72 -206.5t-194 -74.5q-157 0 -213 121q-142 -121 -295 -121q-101 0 -163 69.5t-62 182.5zM233 1067q0 20 19 39l258 252l256 -252q18 -18 18 -39q0 -18 -15.5 -32.5t-31.5 -14.5q-20 0 -41 16l-186 131l-188 -131q-21 -16 -41 -16q-18 0 -33 15.5 t-15 31.5zM332 256q0 -54 29.5 -87.5t76.5 -33.5q63 0 154 68v243l-141 -43q-56 -17 -87.5 -56t-31.5 -91z" />
<glyph unicode="&#xe3;" horiz-adv-x="1058" d="M72 217q0 114 64 184.5t198 102.5l123 28l118 35l17 6v115q0 125 -123 125q-103 0 -121 -106l-6 -35q-6 -38 -34 -59t-72 -21q-51 0 -86 29.5t-35 70.5q0 98 112 172t262 74q97 0 186 -35t130 -94q28 -35 36.5 -77t8.5 -140v-377q0 -47 12 -66.5t43 -19.5q34 0 50 26 t20 91h96q-1 -132 -72 -206.5t-194 -74.5q-157 0 -213 121q-142 -121 -295 -121q-101 0 -163 69.5t-62 182.5zM156 1112q63 103 123 151t129 48q33 0 77 -13l72 -22q86 -25 129 -25q57 0 123 66l53 -39q-57 -89 -108 -129q-71 -55 -138 -55q-26 0 -53 8q-82 20 -157 39 q-48 10 -72 10q-28 0 -53 -17.5t-66 -58.5zM332 256q0 -54 29.5 -87.5t76.5 -33.5q63 0 154 68v243l-141 -43q-56 -17 -87.5 -56t-31.5 -91z" />
<glyph unicode="&#xe4;" horiz-adv-x="1058" d="M72 217q0 114 64 184.5t198 102.5l123 28l118 35l17 6v115q0 125 -123 125q-103 0 -121 -106l-6 -35q-6 -38 -34 -59t-72 -21q-51 0 -86 29.5t-35 70.5q0 98 112 172t262 74q97 0 186 -35t130 -94q28 -35 36.5 -77t8.5 -140v-377q0 -47 12 -66.5t43 -19.5q34 0 50 26 t20 91h96q-1 -132 -72 -206.5t-194 -74.5q-157 0 -213 121q-142 -121 -295 -121q-101 0 -163 69.5t-62 182.5zM143 1186q0 57 40.5 97t97.5 40t97 -40t40 -97t-40 -96t-97 -39t-97.5 39t-40.5 96zM332 256q0 -54 29.5 -87.5t76.5 -33.5q63 0 154 68v243l-141 -43 q-56 -17 -87.5 -56t-31.5 -91zM602 1186q0 57 39 97t96 40t97 -40t40 -97t-40 -96t-97 -39t-96 39t-39 96z" />
<glyph unicode="&#xe5;" horiz-adv-x="1058" d="M72 217q0 114 64 184.5t198 102.5l123 28l118 35l17 6v115q0 125 -123 125q-103 0 -121 -106l-6 -35q-6 -38 -34 -59t-72 -21q-51 0 -86 29.5t-35 70.5q0 98 112 172t262 74q97 0 186 -35t130 -94q28 -35 36.5 -77t8.5 -140v-377q0 -47 12 -66.5t43 -19.5q34 0 50 26 t20 91h96q-1 -132 -72 -206.5t-194 -74.5q-157 0 -213 121q-142 -121 -295 -121q-101 0 -163 69.5t-62 182.5zM322 1194q0 78 55 133t133 55q77 0 131.5 -56.5t54.5 -135.5q0 -75 -54.5 -128.5t-131.5 -53.5q-78 0 -133 54.5t-55 131.5zM332 256q0 -54 29.5 -87.5 t76.5 -33.5q63 0 154 68v243l-141 -43q-56 -17 -87.5 -56t-31.5 -91zM430 1194q0 -33 23.5 -56.5t56.5 -23.5q32 0 55 24t23 56q0 34 -23 57t-55 23q-34 0 -57 -23t-23 -57z" />
<glyph unicode="&#xe6;" horiz-adv-x="1490" d="M72 215q0 110 66 184t192 103l127 28l110 35l27 10v113q0 51 -33.5 83t-87.5 32q-101 0 -119 -92q-13 -72 -39 -100.5t-77 -28.5q-54 0 -86.5 30.5t-32.5 81.5q0 92 105 163t243 71q71 0 133 -21.5t137 -72.5q115 94 275 94q181 0 296 -120.5t115 -309.5q0 -5 -1 -22 t-1 -30h-596v-24q0 -132 68 -220.5t168 -88.5q96 0 180 71q22 18 72 76l108 -65q-37 -53 -57.5 -76.5t-54.5 -48.5q-127 -105 -312 -105q-107 0 -197.5 43t-152.5 123l-16 -14q-44 -36 -82 -66q-117 -86 -240 -86q-104 0 -170.5 70t-66.5 180zM332 256q0 -52 27.5 -83.5 t72.5 -31.5q37 0 84.5 22t89.5 60q-14 92 -14 156q0 11 1 33t1 34l-156 -55q-55 -19 -80.5 -51.5t-25.5 -83.5zM819 537h336q4 31 4 59q0 98 -39.5 152.5t-111.5 54.5q-88 0 -134 -65t-55 -201z" />
<glyph unicode="&#xe7;" horiz-adv-x="946" d="M82 432q0 217 135 356.5t344 139.5q138 0 233 -61.5t95 -151.5q0 -50 -35.5 -84.5t-87.5 -34.5q-100 0 -100 92q0 61 -29.5 93t-85.5 32q-87 0 -133.5 -90t-46.5 -256q0 -170 58.5 -260t168.5 -90q144 0 236 164l116 -43q-47 -119 -144.5 -190.5t-223.5 -80.5l-17 -69 q162 -34 162 -166q0 -81 -62 -135t-155 -54q-44 0 -80 9t-98 36l43 80q64 -26 104 -26q41 0 65.5 20.5t24.5 54.5q0 35 -27 57t-96 42l37 153q-184 26 -292.5 151.5t-108.5 311.5z" />
<glyph unicode="&#xe8;" horiz-adv-x="1048" d="M82 446q0 211 132 346.5t337 135.5q189 0 309.5 -122t120.5 -314q0 -21 -2 -37h-617q6 -166 65.5 -252t166.5 -86q152 0 262 155l111 -63q-56 -110 -172 -177t-252 -67q-209 0 -335 131.5t-126 349.5zM123 1290q0 31 43 31h289l202 -215q23 -21 23 -41q0 -12 -5 -22 t-14.5 -15.5t-21.5 -5.5q-9 0 -29 10l-450 217q-1 1 -6.5 4.5t-7.5 5t-6.5 4.5t-7 5.5t-5 6t-3.5 7.5t-1 8zM356 549h353q-1 134 -40.5 198t-119.5 64t-130 -67t-63 -195z" />
<glyph unicode="&#xe9;" horiz-adv-x="1048" d="M82 446q0 211 132 346.5t337 135.5q189 0 309.5 -122t120.5 -314q0 -21 -2 -37h-617q6 -166 65.5 -252t166.5 -86q152 0 262 155l111 -63q-56 -110 -172 -177t-252 -67q-209 0 -335 131.5t-126 349.5zM356 549h353q-1 134 -40.5 198t-119.5 64t-130 -67t-63 -195z M426 1061q0 20 29 49l196 213h283q43 0 43 -33q0 -22 -29 -35l-440 -221q-28 -12 -39 -12q-18 0 -30.5 11t-12.5 28z" />
<glyph unicode="&#xea;" horiz-adv-x="1048" d="M82 446q0 211 132 346.5t337 135.5q189 0 309.5 -122t120.5 -314q0 -21 -2 -37h-617q6 -166 65.5 -252t166.5 -86q152 0 262 155l111 -63q-56 -110 -172 -177t-252 -67q-209 0 -335 131.5t-126 349.5zM274 1067q0 18 21 39l256 252l258 -252q18 -18 18 -39 q0 -18 -15.5 -32.5t-31.5 -14.5q-20 0 -41 16l-188 131l-186 -131q-21 -16 -41 -16q-18 0 -34 15.5t-16 31.5zM356 549h353q-1 134 -40.5 198t-119.5 64t-130 -67t-63 -195z" />
<glyph unicode="&#xeb;" horiz-adv-x="1048" d="M82 446q0 211 132 346.5t337 135.5q189 0 309.5 -122t120.5 -314q0 -21 -2 -37h-617q6 -166 65.5 -252t166.5 -86q152 0 262 155l111 -63q-56 -110 -172 -177t-252 -67q-209 0 -335 131.5t-126 349.5zM186 1186q0 57 40.5 97t97.5 40t96 -40t39 -97t-39 -96t-96 -39 t-97.5 39t-40.5 96zM356 549h353q-1 134 -40.5 198t-119.5 64t-130 -67t-63 -195zM643 1186q0 57 40 97t97 40t97.5 -40t40.5 -97t-40.5 -96t-97.5 -39t-97 39t-40 96z" />
<glyph unicode="&#xec;" horiz-adv-x="616" d="M0 1290q0 31 35 31h233q16 -20 77 -101t95 -124q11 -15 11 -33q0 -17 -9.5 -29t-23.5 -12q-6 0 -23 10l-366 217q-1 1 -4.5 4t-5 4.5t-5 4t-5 4.5t-3.5 5t-3 6t-2 6.5t-1 6.5zM41 0v102h53q43 0 61.5 10.5t18.5 41.5q2 6 2 39l2 53v428q0 64 -26.5 82t-98.5 18h-12v103 l22 2q145 13 166 16l17 3q18 3 59.5 10t89.5 14l43 6v-735q0 -33 2 -39q0 -32 18.5 -42t61.5 -10h55v-102h-534z" />
<glyph unicode="&#xed;" horiz-adv-x="616" d="M41 0v102h53q43 0 61.5 10.5t18.5 41.5q2 6 2 39l2 53v428q0 64 -26.5 82t-98.5 18h-12v103l22 2q145 13 166 16l17 3q18 3 59.5 10t89.5 14l43 6v-735q0 -33 2 -39q0 -32 18.5 -42t61.5 -10h55v-102h-534zM154 1061q0 21 22 49l158 213h229q37 0 37 -33q0 -21 -25 -35 l-356 -221q-22 -12 -31 -12q-15 0 -24.5 11t-9.5 28z" />
<glyph unicode="&#xee;" horiz-adv-x="616" d="M31 1067q0 19 20 39l256 252l258 -252q19 -19 19 -39q0 -18 -15.5 -32.5t-31.5 -14.5q-20 0 -41 16l-189 131l-186 -131q-24 -16 -41 -16q-18 0 -33.5 15.5t-15.5 31.5zM41 0v102h53q43 0 61.5 10.5t18.5 41.5q2 6 2 39l2 53v428q0 64 -26.5 82t-98.5 18h-12v103l22 2 q145 13 166 16l17 3q18 3 59.5 10t89.5 14l43 6v-735q0 -33 2 -39q0 -32 18.5 -42t61.5 -10h55v-102h-534z" />
<glyph unicode="&#xef;" horiz-adv-x="616" d="M16 1186q0 51 36 87t87 36t87 -36t36 -87t-36 -87t-87 -36t-87 36t-36 87zM41 0v102h53q56 0 74 21q5 7 8 31v39l2 53v428q0 64 -26 82t-99 18h-12v103l22 2q145 13 166 16q1 0 19 3t59.5 10t87.5 14l43 6v-735q0 -33 2 -39q0 -32 18.5 -42t61.5 -10h55v-102h-534z M354 1186q0 51 36 87t87 36t87 -36t36 -87t-36 -87t-87 -36t-87 36t-36 87z" />
<glyph unicode="&#xf1;" horiz-adv-x="1171" d="M41 0v102h57q54 0 72 21q5 7 8 31v39l2 53v399l-2 37q0 52 -23 72t-85 20h-29v103q233 16 371 51q12 -27 17.5 -49.5t12.5 -83.5q72 65 136 99t151 34q127 0 197.5 -72t70.5 -201l-2 -92v-317l2 -53q0 -33 2 -39q0 -31 18.5 -41.5t61.5 -10.5h51v-102h-493v102h16 q43 0 61.5 10.5t18.5 41.5q0 2 1 15.5t1 23.5v389q0 65 -12 102q-10 29 -41.5 47.5t-69.5 18.5q-34 0 -80.5 -19.5t-89.5 -54.5v-483q0 -35 2 -39q0 -31 18.5 -41.5t61.5 -10.5h21v-102h-504zM233 1112q62 103 122 151t130 48q34 0 78 -13l72 -22q83 -25 127 -25 q70 0 123 66l55 -39q-33 -51 -57 -79t-54 -50q-21 -17 -45 -29.5t-47 -19t-43 -6.5q-26 0 -53 8q-81 20 -158 39q-48 10 -71 10q-28 0 -51 -13.5t-58 -50.5q-6 -6 -10 -12z" />
<glyph unicode="&#xf2;" horiz-adv-x="1132" d="M82 461q0 211 132.5 339t350.5 128q220 0 353 -128t133 -339q0 -215 -137.5 -355.5t-348.5 -140.5q-209 0 -346 140.5t-137 355.5zM137 1290q0 31 43 31h289l203 -215q22 -22 22 -41t-11 -31t-30 -12q-8 0 -28 10l-451 217q-2 1 -8 5t-8.5 6l-7.5 6t-7 7t-4 7.5t-2 9.5z M367 451q0 -186 48.5 -273.5t151.5 -87.5t151 87.5t48 273.5q0 178 -49 263t-150 85q-103 0 -151.5 -84.5t-48.5 -263.5z" />
<glyph unicode="&#xf3;" horiz-adv-x="1132" d="M82 461q0 211 132.5 339t350.5 128q220 0 353 -128t133 -339q0 -215 -137.5 -355.5t-348.5 -140.5q-209 0 -346 140.5t-137 355.5zM367 451q0 -186 48.5 -273.5t151.5 -87.5t151 87.5t48 273.5q0 178 -49 263t-150 85q-103 0 -151.5 -84.5t-48.5 -263.5zM440 1061 q0 20 29 49l197 213h282q43 0 43 -33q0 -23 -28 -35l-441 -221q-28 -12 -39 -12q-18 0 -30.5 11t-12.5 28z" />
<glyph unicode="&#xf4;" horiz-adv-x="1132" d="M82 461q0 211 132.5 339t350.5 128q220 0 353 -128t133 -339q0 -215 -137.5 -355.5t-348.5 -140.5q-209 0 -346 140.5t-137 355.5zM289 1067q0 19 20 39l256 252l258 -252q19 -19 19 -39q0 -18 -15.5 -32.5t-31.5 -14.5q-20 0 -41 16l-189 131l-186 -131q-21 -16 -41 -16 q-18 0 -33.5 15.5t-15.5 31.5zM367 451q0 -186 48.5 -273.5t151.5 -87.5t151 87.5t48 273.5q0 178 -49 263t-150 85q-103 0 -151.5 -84.5t-48.5 -263.5z" />
<glyph unicode="&#xf5;" horiz-adv-x="1132" d="M82 461q0 211 132.5 339t350.5 128q220 0 353 -128t133 -339q0 -215 -137.5 -355.5t-348.5 -140.5q-209 0 -346 140.5t-137 355.5zM213 1112q62 103 122.5 151t129.5 48q34 0 78 -13l71 -22q83 -25 127 -25q70 0 123 66l56 -39q-57 -89 -111 -129q-68 -55 -135 -55 q-26 0 -53 8q-81 20 -158 39q-48 10 -72 10q-27 0 -49.5 -13.5t-58.5 -50.5q-9 -9 -11 -12zM367 451q0 -186 48.5 -273.5t151.5 -87.5t151 87.5t48 273.5q0 89 -12 154.5t-37 108.5t-62 64t-88 21q-103 0 -151.5 -84.5t-48.5 -263.5z" />
<glyph unicode="&#xf6;" horiz-adv-x="1132" d="M82 461q0 211 132.5 339t350.5 128q220 0 353 -128t133 -339q0 -215 -137.5 -355.5t-348.5 -140.5q-209 0 -346 140.5t-137 355.5zM201 1186q0 57 40 97t97 40t96 -40t39 -97t-39 -96t-96 -39t-97 39t-40 96zM367 451q0 -186 48.5 -273.5t151.5 -87.5t151 87.5t48 273.5 q0 178 -49 263t-150 85q-103 0 -151.5 -84.5t-48.5 -263.5zM657 1186q0 57 40.5 97t97.5 40t97 -40t40 -97t-40 -96t-97 -39t-97.5 39t-40.5 96z" />
<glyph unicode="&#xf7;" d="M68 594v190h888v-190h-888zM387 328q0 52 36.5 88.5t88.5 36.5t88.5 -36.5t36.5 -88.5t-37 -88.5t-88 -36.5q-52 0 -88.5 36.5t-36.5 88.5zM387 1049q0 53 36.5 90t88.5 37t88.5 -37t36.5 -90q0 -51 -37 -88t-88 -37q-52 0 -88.5 37t-36.5 88z" />
<glyph unicode="&#xf8;" horiz-adv-x="1132" d="M82 461q0 211 132.5 339t350.5 128q155 0 273 -70l118 141l82 -71l-114 -135q127 -130 127 -334q0 -213 -137.5 -353.5t-346.5 -140.5q-65 0 -141 22t-133 58l-117 -137l-84 69l117 138q-127 136 -127 346zM367 451q0 -86 12 -154l336 420q-46 82 -148 82 q-103 0 -151.5 -84.5t-48.5 -263.5zM418 172q20 -39 59 -60.5t90 -21.5q101 0 150 88.5t49 272.5q0 94 -10 145z" />
<glyph unicode="&#xf9;" horiz-adv-x="1148" d="M41 797v102h379v-555l4 -45q1 -47 7.5 -68t23.5 -38q37 -37 98 -37q76 0 164 71v441l-2 37q0 52 -23.5 72t-85.5 20h-28v102h397v-653l2 -37q1 -52 24.5 -72t83.5 -20h23v-103l-35 -2q-174 -12 -321 -41q-20 39 -35 138q-72 -77 -137.5 -110.5t-141.5 -33.5 q-90 0 -162 47.5t-96 122.5q-13 34 -15.5 65t-2.5 150v318l-2 37q-1 52 -25 72t-84 20h-10zM145 1290q0 31 43 31h289l203 -215q22 -22 22 -41t-11 -31t-29 -12q-9 0 -29 10l-451 217q-2 1 -8 5t-8.5 6l-7.5 6t-7 7t-4 7.5t-2 9.5z" />
<glyph unicode="&#xfa;" horiz-adv-x="1148" d="M41 797v102h379v-555l4 -45q1 -47 7.5 -68t23.5 -38q37 -37 98 -37q76 0 164 71v441l-2 37q0 52 -23.5 72t-85.5 20h-28v102h397v-653l2 -37q1 -52 24.5 -72t83.5 -20h23v-103l-35 -2q-174 -12 -321 -41q-20 39 -35 138q-72 -77 -137.5 -110.5t-141.5 -33.5 q-90 0 -162 47.5t-96 122.5q-13 34 -15.5 65t-2.5 150v318l-2 37q-1 52 -25 72t-84 20h-10zM449 1061q0 21 28 49l197 213h282q45 0 45 -33q0 -21 -28 -35l-443 -221q-24 -12 -38 -12q-18 0 -30.5 11t-12.5 28z" />
<glyph unicode="&#xfb;" horiz-adv-x="1148" d="M41 797v102h379v-555l4 -45q1 -47 7.5 -68t23.5 -38q37 -37 98 -37q76 0 164 71v441l-2 37q0 52 -23.5 72t-85.5 20h-28v102h397v-653l2 -37q1 -52 24.5 -72t83.5 -20h23v-103l-35 -2q-174 -12 -321 -41q-20 39 -35 138q-72 -77 -137.5 -110.5t-141.5 -33.5 q-90 0 -162 47.5t-96 122.5q-13 34 -15.5 65t-2.5 150v318l-2 37q-1 52 -25 72t-84 20h-10zM299 1067q0 21 18 39l258 252l256 -252q19 -19 19 -39q0 -18 -15.5 -32.5t-31.5 -14.5q-20 0 -41 16l-187 131l-188 -131q-21 -16 -41 -16q-18 0 -32.5 15.5t-14.5 31.5z" />
<glyph unicode="&#xfc;" horiz-adv-x="1148" d="M41 797v102h379v-555l4 -45q1 -47 7.5 -68t23.5 -38q37 -37 98 -37q76 0 164 71v441l-2 37q0 52 -23.5 72t-85.5 20h-28v102h397v-653l2 -37q1 -52 24.5 -72t83.5 -20h23v-103l-35 -2q-174 -12 -321 -41q-20 39 -35 138q-72 -77 -137.5 -110.5t-141.5 -33.5 q-90 0 -162 47.5t-96 122.5q-13 34 -15.5 65t-2.5 150v318l-2 37q-1 52 -25 72t-84 20h-10zM209 1186q0 57 40 97t97 40t97 -40t40 -97t-40 -96t-97 -39t-97 39t-40 96zM668 1186q0 57 39 97t96 40t97 -40t40 -97t-40 -96t-97 -39t-96 39t-39 96z" />
<glyph unicode="&#xff;" horiz-adv-x="1030" d="M14 797v102h492v-102h-17q-54 0 -70 -6.5t-16 -28.5q0 -14 7 -31l176 -389l180 401q4 12 4 19q0 33 -55 33l-33 2h-18v102h354v-102q-49 -2 -72 -17q-28 -17 -72 -110l-442 -983q-49 -112 -106.5 -161.5t-135.5 -49.5q-71 0 -117 38.5t-46 96.5q0 37 24 76q52 -21 96 -21 q76 0 138 53q32 29 56 71t69 144l41 89l-324 696q-20 42 -45.5 59.5t-67.5 18.5zM178 1186q0 57 39.5 97t95.5 40q57 0 97.5 -40t40.5 -97t-40.5 -96t-97.5 -39q-56 0 -95.5 39t-39.5 96zM635 1186q0 57 40 97t97 40t96 -40t39 -97t-39 -96t-96 -39t-97 39t-40 96z" />
<glyph unicode="&#x152;" horiz-adv-x="2070" d="M109 664q0 321 211 521.5t550 200.5q88 0 213 -20h822l28 -354h-106q-19 74 -33 109t-39 67q-34 46 -77 61t-142 15h-223v-521h65q108 0 149 43t50 152h102v-506h-102v17q0 105 -44.5 147.5t-154.5 42.5h-65v-385l-2 -31q0 -67 32 -96q28 -25 127 -25h140q82 0 134 20 t89 66q35 42 55.5 93.5t44.5 150.5h103l-27 -432h-885q-174 -27 -268 -27q-344 0 -545.5 187t-201.5 504zM428 641q0 -259 109 -405t301 -146q104 0 142 47.5t38 177.5v930q-34 12 -56.5 18t-45 8.5t-52.5 2.5q-211 0 -323.5 -163t-112.5 -470z" />
<glyph unicode="&#x153;" horiz-adv-x="1681" d="M82 442q0 211 134 348.5t339 137.5q175 0 326 -119q82 63 155 91t156 28q183 0 302.5 -119t119.5 -301q0 -6 -1 -25.5t-1 -33.5h-596q3 -162 63 -247t172 -85q142 0 246 143l115 -63q-57 -106 -171.5 -169t-248.5 -63q-179 0 -311 135q-147 -135 -340 -135 q-199 0 -329 135t-130 342zM362 467q0 -365 193 -365q98 0 143 81.5t45 258.5t-49 271t-141 94q-91 0 -141 -89t-50 -251zM1014 549h332q2 23 2 45q0 104 -40.5 159.5t-115.5 55.5q-83 0 -126.5 -64t-51.5 -196z" />
<glyph unicode="&#x178;" horiz-adv-x="1447" d="M20 1264v102h639v-102l-16 -2h-41q-72 0 -72 -56q0 -25 52 -110l200 -334l213 356l21 33q18 27 18 53q0 52 -108 58h-41l-21 2v102h563v-102q-20 -4 -24 -4q-26 -4 -70 -13q-35 -8 -57 -20q-31 -14 -49.5 -34.5t-52.5 -74.5l-310 -514v-352q0 -58 5 -81t20 -38 q31 -31 123 -31h43v-102h-682v102h47q92 0 123 31q15 15 19.5 37.5t4.5 81.5v338l-342 528q-52 78 -80 109q-19 20 -39 26.5t-63 8.5zM385 1591q0 56 40 95.5t97 39.5t97 -39.5t40 -95.5q0 -57 -40 -97t-97 -40t-97 40t-40 97zM815 1591q0 56 40 95.5t97 39.5t97.5 -39.5 t40.5 -95.5q0 -57 -40.5 -97t-97.5 -40t-97 40t-40 97z" />
<glyph unicode="&#x2c6;" d="M236 1067q0 19 20 39l256 252l256 -252q20 -20 20 -39q0 -17 -16 -32t-33 -15t-41 16l-186 131l-186 -131q-24 -16 -43 -16q-17 0 -32 15.5t-15 31.5z" />
<glyph unicode="&#x2dc;" d="M158 1112q63 103 123 151t129 48q36 0 77 -13l72 -22q86 -25 129 -25q33 0 60.5 15.5t62.5 50.5l55 -39q-33 -52 -57 -79.5t-53 -49.5q-68 -55 -138 -55q-27 0 -51 8q-82 20 -157 39q-48 10 -72 10q-29 0 -51 -13.5t-58 -50.5q-6 -6 -10 -12z" />
<glyph unicode="&#x2000;" horiz-adv-x="906" />
<glyph unicode="&#x2001;" horiz-adv-x="1812" />
<glyph unicode="&#x2002;" horiz-adv-x="906" />
<glyph unicode="&#x2003;" horiz-adv-x="1812" />
<glyph unicode="&#x2004;" horiz-adv-x="604" />
<glyph unicode="&#x2005;" horiz-adv-x="453" />
<glyph unicode="&#x2006;" horiz-adv-x="302" />
<glyph unicode="&#x2007;" horiz-adv-x="302" />
<glyph unicode="&#x2008;" horiz-adv-x="226" />
<glyph unicode="&#x2009;" horiz-adv-x="362" />
<glyph unicode="&#x200a;" horiz-adv-x="100" />
<glyph unicode="&#x2010;" horiz-adv-x="460" d="M0 391v146h461v-146h-461z" />
<glyph unicode="&#x2011;" horiz-adv-x="460" d="M0 391v146h461v-146h-461z" />
<glyph unicode="&#x2012;" horiz-adv-x="460" d="M0 391v146h461v-146h-461z" />
<glyph unicode="&#x2013;" d="M68 594v190h888v-190h-888z" />
<glyph unicode="&#x2014;" horiz-adv-x="1390" d="M0 393v142h1391v-142h-1391z" />
<glyph unicode="&#x2018;" horiz-adv-x="591" d="M94 1051q0 142 75.5 243.5t215.5 145.5l29 -68q-72 -40 -115 -102.5t-43 -128.5q0 -22 10 -51q18 8 47 8q77 0 130 -50.5t53 -123.5q0 -74 -53 -126.5t-126 -52.5q-94 0 -158.5 88.5t-64.5 217.5z" />
<glyph unicode="&#x2019;" horiz-adv-x="593" d="M96 1239q0 75 51.5 126.5t126.5 51.5q97 0 161.5 -85t64.5 -212q0 -146 -75.5 -249.5t-215.5 -149.5l-29 65q84 60 119 115t35 127q0 1 -4 47q-22 -12 -51 -12q-76 0 -129.5 51t-53.5 125z" />
<glyph unicode="&#x201a;" horiz-adv-x="593" d="M96 176q0 72 51 124t121 52q100 0 166 -85t66 -214q0 -290 -293 -399l-27 67l15 13q75 57 106 109t31 120q0 24 -4 47q-34 -10 -62 -10q-69 0 -119.5 52.5t-50.5 123.5z" />
<glyph unicode="&#x201c;" horiz-adv-x="1079" d="M94 1040q0 146 75.5 250t215.5 150l29 -66q-83 -58 -118.5 -114t-35.5 -127q0 -2 4 -48q23 13 51 13q76 0 129.5 -51t53.5 -125q0 -75 -52 -127t-127 -52q-97 0 -161 84.5t-64 212.5zM580 1047q0 146 74.5 246t219.5 147l27 -66q-53 -29 -92 -76q-37 -46 -49 -76t-12 -77 q0 -25 2 -37v-23q30 13 57 13q74 0 125 -51.5t51 -126.5q0 -74 -51.5 -125.5t-124.5 -51.5q-95 0 -161 88t-66 216z" />
<glyph unicode="&#x201d;" horiz-adv-x="1079" d="M96 1239q0 74 51 126t123 52q97 0 162.5 -87.5t65.5 -215.5q0 -77 -26.5 -150t-72.5 -126q-40 -46 -78.5 -69t-115.5 -48l-29 65q34 19 52.5 34t41.5 42q37 46 49.5 76.5t12.5 75.5q0 27 -2 39v22q-28 -12 -58 -12q-74 0 -125 51.5t-51 124.5zM582 1239q0 75 51.5 126.5 t126.5 51.5q97 0 160 -84.5t63 -212.5q0 -146 -75.5 -249.5t-215.5 -149.5l-26 65q83 60 118 115t35 127q0 1 -4 47q-22 -12 -51 -12q-76 0 -129 51t-53 125z" />
<glyph unicode="&#x201e;" horiz-adv-x="1079" d="M96 176q0 73 51 124.5t123 51.5q97 0 162.5 -86t65.5 -213q0 -170 -99 -280q-40 -44 -78 -67.5t-116 -51.5l-27 67q156 104 156 234q0 28 -6 55q-45 -10 -66 -10q-66 0 -116 53.5t-50 122.5zM582 176q0 72 51.5 124t122.5 52q100 0 164.5 -85t64.5 -214q0 -289 -291 -399 l-28 67l16 13q74 57 105.5 109.5t31.5 119.5q0 1 -4 47q-36 -10 -63 -10q-68 0 -119 53t-51 123z" />
<glyph unicode="&#x2022;" horiz-adv-x="1366" d="M401 696q0 119 83 203t200 84q116 0 198.5 -84.5t82.5 -202.5t-82.5 -202t-198.5 -84q-117 0 -200 84t-83 202z" />
<glyph unicode="&#x2026;" horiz-adv-x="1777" d="M119 141q0 72 52.5 124t125.5 52t125.5 -52t52.5 -124q0 -73 -52 -124.5t-126 -51.5q-75 0 -126.5 51t-51.5 125zM711 141q0 72 52.5 124t125.5 52t125.5 -52t52.5 -124q0 -74 -51.5 -125t-126.5 -51t-126.5 51t-51.5 125zM1303 141q0 72 52.5 124t125.5 52t125.5 -52 t52.5 -124q0 -74 -51.5 -125t-126.5 -51q-74 0 -126 51.5t-52 124.5z" />
<glyph unicode="&#x202f;" horiz-adv-x="362" />
<glyph unicode="&#x2039;" horiz-adv-x="610" d="M76 471l321 375q35 41 66 41q26 0 42.5 -14.5t16.5 -36.5q0 -16 -12 -43l-148 -322l146 -311q12 -30 12 -51q0 -22 -17 -38t-40 -16q-30 0 -53 29z" />
<glyph unicode="&#x203a;" horiz-adv-x="610" d="M88 106q0 18 10 41l148 322l-144 313q-12 27 -12 49q0 23 17 39.5t40 16.5q17 0 28 -6t26 -25l334 -387l-322 -373q-33 -41 -68 -41q-25 0 -41 14.5t-16 36.5z" />
<glyph unicode="&#x205f;" horiz-adv-x="453" />
<glyph unicode="&#x2122;" horiz-adv-x="1880" d="M47 1122l14 244h701l12 -244h-59q-6 89 -50.5 137t-121.5 48h-47v-576q0 -54 15 -70t69 -16h24v-57h-391v57h29q54 0 69 15.5t15 70.5v576h-43q-84 0 -128 -45t-51 -140h-57zM803 588v57h26q54 0 70 15.5t16 70.5v492q0 54 -16 69t-70 15h-26v59h303l217 -553l219 553 h293v-59h-27q-44 0 -63 -12.5t-19 -41.5v-522q0 -53 17 -69.5t69 -16.5h23v-57h-389v57h29q54 0 69 15.5t15 70.5v449l-236 -592h-88l-236 600v-457q0 -34 3 -46t12 -21q19 -19 69 -19h29v-57h-309z" />
<glyph unicode="&#xe000;" horiz-adv-x="901" d="M0 0v901h901v-901h-901z" />
<glyph unicode="&#xfb01;" horiz-adv-x="1169" d="M41 0v102h53q43 0 59.5 10.5t20.5 41.5v39l2 53v534h-135v119h135v129q0 167 129.5 269t343.5 102q146 0 233 -52.5t87 -140.5q0 -52 -33 -87.5t-80 -35.5q-45 0 -73.5 27.5t-28.5 69.5v22l4 23q2 4 2 8q0 25 -39 40t-103 15q-94 0 -138 -44.5t-44 -139.5v-205h160 q164 0 240 10l120 15l35 4v-682l2 -53v-39q0 -31 18.5 -41.5t61.5 -10.5h55v-102h-495v102h16q42 0 61 11t19 41q0 21 2 39v487q0 36 -6 53t-23 29q-18 11 -43.5 14.5t-91.5 3.5h-131v-534l2 -53v-39q4 -31 20.5 -41.5t59.5 -10.5h21v-102h-498z" />
<glyph unicode="&#xfb02;" horiz-adv-x="1165" d="M41 0v102h53q43 0 59.5 10.5t20.5 41.5v39l2 53v534h-135v119h135v129q0 165 101.5 268t263.5 103q61 0 131 -23q61 8 123 17q95 11 196 34v-1181l2 -53v-39q0 -31 18.5 -41.5t61.5 -10.5h51v-102h-491v102h14q42 0 61 11t19 41v39l2 53v823q0 123 -33.5 179.5 t-105.5 56.5q-49 0 -86 -29.5t-49 -79.5q-19 -75 -19 -268v-29h185v-119h-185v-534l2 -53v-39q4 -31 20.5 -41.5t59.5 -10.5h21v-102h-498z" />
</font>
</defs>
</svg>
